<svg width="270" height="270" viewBox="0 0 270 270" fill="none" xmlns="http://www.w3.org/2000/svg">
<mask id="mask0_104_13879" style="mask-type:alpha" maskUnits="userSpaceOnUse" x="0" y="0" width="270" height="270">
<rect width="270" height="270" fill="#ACACAC"/>
</mask>
<g mask="url(#mask0_104_13879)">
<path d="M230.237 188.738C232.378 185.952 234.206 182.842 235.263 179.475C236.428 175.763 236.372 171.866 235.806 168.054C234.952 162.299 232.823 156.611 233.693 150.735C233.69 150.706 233.687 150.679 233.683 150.651C233.63 150.642 233.578 150.633 233.525 150.624C232.894 151.717 232.263 152.81 231.632 153.903C231.685 153.91 231.739 153.916 231.792 153.923C232.312 153.989 233.624 151.189 233.694 150.728C234.427 145.926 237.521 141.66 239.826 137.45C242.544 132.487 244.385 126.936 243.692 121.226C242.932 114.958 238.94 110.162 234.715 105.786C231.152 102.096 227.258 98.609 225.669 93.5569C223.686 87.2523 224.835 80.4062 223.205 74.0024C221.56 67.5405 217.388 62.3622 211.29 59.6077C205.587 57.0318 199.145 56.8996 193.422 54.441C187.027 51.6924 183.885 45.7719 179.754 40.5602C174.811 34.325 168.264 30.0133 160.026 30.6576C155.912 30.9794 152.085 32.4178 148.238 33.808C146.37 34.4831 144.495 35.2076 142.567 35.696C142.147 35.8025 136.864 36.7258 136.864 36.5458C136.86 36.518 136.857 36.4901 136.854 36.4619C131.841 36.3577 127.235 34.0021 122.625 32.282C118.261 30.6535 113.598 29.5464 108.921 30.1814C101.179 31.2321 95.9701 36.8398 91.5162 42.7569C88.8026 46.3624 86.0852 50.1404 81.981 52.2695C78.7337 53.9537 75.1182 54.5326 71.5703 55.24C65.3165 56.4873 59.1399 58.2431 54.5951 63.0065C48.7681 69.114 47.1378 77.0917 46.5102 85.2167C46.3402 87.4148 46.1848 89.6234 45.7587 91.79C45.1875 94.6944 43.9714 96.9393 41.9695 99.0981C39.126 102.165 35.8783 104.817 33.2367 108.076C28.2807 114.19 24.899 121.683 26.6615 129.649C28.6351 138.568 36.343 145.679 35.8004 155.195C35.5083 160.313 33.5584 165.201 32.9097 170.274C32.284 175.168 32.8017 180.197 35.25 184.556C40.0701 193.137 50.0092 195.011 56.8608 201.274C56.8701 201.283 59.151 198.359 58.7539 197.996C53.0438 192.776 45.0948 190.802 39.8237 184.98C33.623 178.132 34.052 169.354 36.0279 160.931C37.0277 156.669 38.272 152.303 37.4934 147.895C36.7341 143.594 34.4825 139.772 32.4324 135.984C28.2002 128.162 25.6368 118.624 31.7678 111.003C34.2613 107.903 37.3365 105.369 40.0638 102.489C42.57 99.8429 44.7106 96.8146 46.187 93.4704C47.8626 89.6749 48.1517 85.5674 48.4701 81.4839C48.8127 77.0924 49.0246 71.9015 51.3805 68.0348C55.0483 62.0145 62.762 59.9532 69.1773 58.6254C71.8909 58.0639 74.6495 57.6434 77.2811 56.7467C80.9192 55.5068 83.9079 53.2586 86.3955 50.3557C92.1449 43.645 96.4989 35.5141 105.937 33.6414C110.579 32.7203 115.37 33.6455 119.769 35.2027C122.226 36.0723 124.62 37.1055 127.065 38.0058C127.644 38.2188 134.951 40.3539 134.951 39.6573C134.955 39.6852 134.958 39.713 134.961 39.7408C141.973 39.8046 148.215 35.7913 154.946 34.3759C162.159 32.8595 168.995 34.9151 174.336 39.9182C179.196 44.4726 181.935 50.9435 187.138 55.1439C192.273 59.2897 199.231 59.5992 205.331 61.3995C211.454 63.2065 216.758 66.7697 219.628 72.6241C222.495 78.4741 222.144 84.8715 222.755 91.178C223.084 94.5648 223.771 97.7832 225.553 100.729C227.079 103.249 229.145 105.42 231.233 107.481C234.74 110.943 238.346 114.569 240.307 119.167C243.201 125.953 241.704 133.262 238.45 139.146C235.877 143.799 232.598 148.494 231.782 153.839C232.416 152.774 233.05 151.709 233.684 150.644C233.631 150.637 233.578 150.631 233.525 150.624C232.84 150.538 231.789 153.929 231.632 153.903C231.357 153.856 231.962 161.463 232.122 162.308C232.44 163.993 232.824 165.669 233.175 167.348C234.382 173.133 235.609 180.735 231.706 185.811C231.183 186.491 230.72 187.244 230.352 188.02C230.277 188.179 229.801 189.305 230.237 188.738Z" fill="#DC3C36"/>
<path d="M74.2709 197.831C55.9308 179.403 46.371 153.429 48.9195 127.494C50.2196 114.264 54.4611 101.117 61.8435 90.0116C69.2652 78.8475 79.4919 69.5616 91.1488 62.9768C114.137 49.992 142.395 48.1991 166.864 58.0943C187.037 66.2523 203.682 82.0558 213.032 101.687C223.358 123.365 224.235 148.857 215.366 171.187C213.967 174.71 212.315 178.126 210.421 181.409C210.352 181.529 209.525 183.128 209.639 183.144C209.94 183.184 210.665 181.744 210.749 181.599C223.624 159.274 227.132 132.594 218.829 108.036C211.506 86.3749 195.644 68.0159 175.205 57.7369C151.098 45.6127 122.061 45.4275 97.7834 57.1992C73.7213 68.8665 55.8298 91.7436 49.2792 117.587C42.5841 144 48.8197 172.532 65.8294 193.801C67.875 196.358 70.0683 198.789 72.3778 201.11C72.3459 201.078 74.6869 198.25 74.2709 197.831Z" fill="#DC3C36"/>
<path d="M37.8407 190.017C25.9325 192.101 13.753 191.982 1.91016 189.577C1.54498 189.503 -0.191874 192.527 0.017439 192.856C3.94169 199.032 8.09417 205.069 12.178 211.14C12.4389 210.562 12.6998 209.984 12.9607 209.406C10.4219 213.773 7.77538 218.087 4.95448 222.277C4.83721 222.451 3.44438 224.719 3.67188 224.826C7.65699 226.696 12.2693 227.363 16.6074 227.791C22.6021 228.382 28.6829 228.325 34.6799 227.805C35.0766 227.771 35.6162 226.562 35.7903 226.26C35.8731 226.117 36.5693 224.527 36.573 224.527C30.5757 225.047 24.4952 225.103 18.5001 224.512C14.1613 224.085 9.55046 223.417 5.56498 221.547C5.13744 222.396 4.70991 223.246 4.28238 224.095C7.45881 219.377 10.43 214.512 13.2884 209.595C13.4213 209.367 14.2622 208.146 14.0711 207.861C9.9869 201.791 5.83441 195.753 1.91016 189.577C1.27925 190.67 0.648347 191.763 0.017439 192.856C11.86 195.26 24.0398 195.379 35.9477 193.296C36.3715 193.222 36.8654 192.085 37.058 191.751C37.1516 191.589 37.7966 190.025 37.8407 190.017Z" fill="#DC3C36"/>
<path d="M198.047 226.78C198.378 229.616 198.715 232.451 199.104 235.28C199.363 237.173 199.215 238.991 201.209 239.789C205.901 241.666 211.874 239.948 216.516 238.813C227.995 236.006 239.577 234.029 251.419 234.141C257.046 234.194 262.582 234.918 268.09 236.036C268.455 236.11 270.192 233.086 269.982 232.757C266.058 226.582 261.906 220.544 257.822 214.473C257.561 215.051 257.3 215.629 257.039 216.207C259.578 211.841 262.225 207.526 265.045 203.336C265.163 203.162 266.556 200.894 266.328 200.787C262.343 198.917 257.731 198.25 253.393 197.822C247.28 197.22 241.075 197.301 234.961 197.831C234.564 197.866 234.025 199.074 233.851 199.376C233.768 199.519 233.072 201.11 233.068 201.11C239.182 200.58 245.387 200.499 251.5 201.101C255.839 201.528 260.449 202.196 264.435 204.066C264.862 203.217 265.29 202.367 265.718 201.518C262.541 206.236 259.57 211.101 256.712 216.018C256.579 216.246 255.738 217.468 255.929 217.752C260.013 223.823 264.166 229.86 268.09 236.036C268.721 234.943 269.352 233.85 269.982 232.757C259.65 230.66 249.042 230.267 238.576 231.619C232.456 232.41 226.354 233.687 220.344 235.074C215.209 236.26 209.793 237.976 204.476 236.899C203.624 236.726 202.636 236.481 201.982 235.869C201.274 235.206 201.309 234.198 201.178 233.29C200.707 230.035 200.321 226.768 199.94 223.501C199.953 223.617 198.952 224.835 198.829 225.046C198.574 225.488 197.983 226.238 198.047 226.78Z" fill="#DC3C36"/>
<path d="M231.055 223.67C231.979 217.624 201.819 219.211 198.627 219.341C175.658 220.274 153.139 224.382 130.684 229.056C110.142 233.332 89.1757 236.936 68.1557 237.532C62.446 237.694 56.6728 237.656 51.0039 236.879C47.6442 236.419 40.8764 235.702 40.6184 231.468C39.9419 220.35 39.7741 209.178 39.3522 198.046C39.3396 197.706 39.3266 197.366 39.3136 197.025C38.676 198.063 38.0388 199.1 37.4012 200.137C37.5853 204.903 44.9223 205.271 48.4361 205.631C54.7526 206.276 61.1456 206.208 67.4806 205.928C89.9064 204.933 112.099 200.857 133.989 196.094C154.628 191.603 175.713 187.761 196.879 187.158C202.826 186.989 208.809 187.093 214.719 187.823C218.336 188.27 222.3 188.801 225.389 190.874C226.449 191.586 227.486 192.567 227.704 193.876C227.949 195.348 227.839 196.972 227.904 198.458C228.045 201.676 228.186 204.894 228.327 208.112C228.583 213.977 228.839 219.842 229.096 225.707C229.111 226.065 229.127 226.423 229.143 226.781C229.154 227.033 229.946 225.849 230.005 225.753C230.309 225.263 231.083 224.294 231.055 223.67C230.596 213.153 230.135 202.636 229.676 192.119C229.645 191.416 229.694 190.667 229.446 189.997C228.456 187.324 224.716 186.169 222.285 185.541C216.592 184.071 210.442 183.87 204.592 183.818C185.348 183.649 166.058 186.751 147.234 190.459C134.035 193.059 120.95 196.138 107.673 198.346C97.3311 200.065 86.9208 201.444 76.4637 202.224C69.1956 202.766 61.8756 203.057 54.5916 202.674C52.1841 202.548 49.7755 202.348 47.3914 201.982C45.3291 201.667 42.7754 201.355 41.0827 200.058C40.1727 199.361 39.3596 198.216 39.3136 197.025C39.3039 196.774 38.5101 197.958 38.4507 198.054C38.1449 198.547 37.3774 199.509 37.4012 200.137C37.8068 210.843 38.2124 221.548 38.6181 232.255C38.6548 233.232 38.5502 234.337 38.745 235.303C39.3143 238.12 43.5084 239.091 45.8141 239.589C50.6629 240.636 55.706 240.838 60.6505 240.875C79.8479 241.017 99.1207 238.034 117.933 234.49C131.11 232.008 144.157 228.933 157.399 226.788C168.001 225.07 178.676 223.75 189.394 223.021C196.943 222.507 204.521 222.273 212.085 222.524C214.696 222.611 217.304 222.756 219.905 222.992C222.632 223.239 226.426 223.184 228.444 225.251C228.815 225.631 229.23 226.21 229.143 226.781C229.11 226.994 229.942 225.856 230.005 225.753C230.374 225.158 230.946 224.385 231.055 223.67Z" fill="#DC3C36"/>
<path d="M133.754 60.0332C133.485 62.4555 133.216 64.8778 132.947 67.3001C132.927 67.4872 133.615 66.5256 133.666 66.4428C133.963 65.9645 134.476 65.2909 134.541 64.7075C134.81 62.2852 135.079 59.8629 135.347 57.4405C135.368 57.2535 134.68 58.2151 134.629 58.2975C134.332 58.7762 133.818 59.4498 133.754 60.0332Z" fill="#DC3C36"/>
<path d="M121.555 61.2008C122.374 64.3617 122.75 67.5633 122.688 70.8277C122.684 71.0315 123.358 70.0487 123.407 69.9704C123.679 69.5355 124.271 68.7821 124.282 68.2351C124.345 64.9169 123.965 61.6818 123.133 58.4686C123.141 58.5016 122.288 59.6157 122.207 59.7557C122.023 60.0756 121.452 60.8015 121.555 61.2008Z" fill="#DC3C36"/>
<path d="M106.683 64.5129C106.998 65.6871 107.34 66.8057 107.736 67.9551C107.734 67.9521 108.589 66.7931 108.661 66.668C108.83 66.3752 109.439 65.5895 109.313 65.2229C108.917 64.0735 108.575 62.9549 108.26 61.7807C108.245 61.7228 107.876 62.2012 107.933 62.1251C107.713 62.4213 107.519 62.7493 107.335 63.0678C107.152 63.3847 106.577 64.1169 106.683 64.5129Z" fill="#DC3C36"/>
<path d="M96.6768 67.3102C98.0422 69.5484 99.4075 71.7863 100.773 74.0245C100.807 74.0809 101.639 72.8395 101.698 72.7371C101.828 72.5137 102.518 71.5658 102.351 71.2923C100.985 69.0541 99.6198 66.8158 98.2544 64.578C98.2199 64.5215 97.3882 65.7626 97.3289 65.865C97.1997 66.0884 96.5098 67.0366 96.6768 67.3102Z" fill="#DC3C36"/>
<path d="M84.0225 73.87C85.9686 76.6916 88.0529 79.406 90.2766 82.0146C90.2005 81.9256 92.2172 79.7085 91.8539 79.2824C89.6305 76.6738 87.5459 73.9594 85.6001 71.1378C85.7252 71.3193 83.6565 73.3393 84.0225 73.87Z" fill="#DC3C36"/>
<path d="M77.4505 84.1993C78.1552 85.1876 78.8596 86.1759 79.5644 87.1642C79.6137 87.2336 80.4321 85.977 80.4896 85.8768C80.6072 85.6734 81.3157 84.6758 81.142 84.432C80.4372 83.4437 79.7325 82.4554 79.0281 81.4671C78.9784 81.3977 78.1604 82.654 78.1025 82.7542C77.9852 82.9579 77.2764 83.9555 77.4505 84.1993Z" fill="#DC3C36"/>
<path d="M65.8992 94.3303C67.5596 95.6459 69.2204 96.9619 70.8808 98.2775C70.9454 98.3291 72.7579 95.7829 72.4581 95.5453C70.7977 94.2297 69.1373 92.9137 67.4769 91.5981C67.4119 91.5465 65.5997 94.0928 65.8992 94.3303Z" fill="#DC3C36"/>
<path d="M59.536 107.744C61.3842 109.125 63.4205 110.143 65.6342 110.792C66.0763 110.921 67.2078 108.058 67.2115 108.059C64.9978 107.41 62.9614 106.392 61.1136 105.011C61.0242 104.945 59.2517 107.531 59.536 107.744Z" fill="#DC3C36"/>
<path d="M55.0657 117.845C58.5527 118.673 62.0695 119.309 65.626 119.755C66.2231 119.83 67.0366 117.002 67.2036 117.023C63.6471 116.577 60.1304 115.941 56.6433 115.113C56.149 114.996 55.1217 117.859 55.0657 117.845Z" fill="#DC3C36"/>
<path d="M58.3539 132.153C60.9373 132.538 63.521 132.923 66.1044 133.309C66.6804 133.394 67.5388 130.555 67.682 130.576C65.0983 130.191 62.5149 129.806 59.9315 129.421C59.3555 129.335 58.4968 132.174 58.3539 132.153Z" fill="#DC3C36"/>
<path d="M56.7062 150.717C60.0856 150.347 63.4469 149.864 66.7937 149.266C67.6027 149.122 67.9167 146.615 68.3713 146.534C65.0245 147.131 61.6633 147.615 58.2838 147.985C57.5104 148.069 57.1025 150.673 56.7062 150.717Z" fill="#DC3C36"/>
<path d="M63.0998 165.23C66.5212 163.628 70.0253 162.242 73.6156 161.068C74.0008 160.942 74.3526 160.107 74.5411 159.781C74.6391 159.611 75.0967 158.367 75.1932 158.336C71.5581 159.524 68.0112 160.931 64.5483 162.554C64.0952 162.766 63.7066 163.757 63.4828 164.179C63.4008 164.333 62.9584 165.297 63.0998 165.23Z" fill="#DC3C36"/>
<path d="M66.3254 176.906C68.5688 175.034 70.9581 173.372 73.4947 171.922C73.9631 171.654 74.3141 170.754 74.5606 170.296C74.6459 170.137 75.0646 169.176 74.9432 169.245C72.4066 170.696 70.0173 172.357 67.7739 174.23C67.3055 174.621 66.9923 175.328 66.7084 175.855C66.6119 176.034 66.2519 176.968 66.3254 176.906Z" fill="#DC3C36"/>
<path d="M74.8418 185.201C76.4796 183.552 78.1169 181.903 79.7547 180.254C80.2034 179.802 80.5211 179.184 80.8202 178.628C80.9449 178.397 81.2229 178.034 81.2288 177.775C81.2295 177.757 81.3394 177.44 81.2032 177.577C79.5654 179.226 77.928 180.876 76.2903 182.525C75.8416 182.977 75.5235 183.594 75.2244 184.15C75.0923 184.396 74.8455 184.727 74.8162 185.003C74.8136 185.024 74.7074 185.337 74.8418 185.201Z" fill="#DC3C36"/>
<path d="M81.0949 194.742C82.0914 192.994 83.4612 191.485 84.9497 190.145C85.4118 189.729 85.7246 189.06 86.0152 188.519C86.1151 188.334 86.461 187.412 86.3982 187.468C84.1292 189.512 82.3307 191.938 80.8218 194.584C80.7509 194.708 80.0116 195.938 80.1697 196.029C80.3215 196.117 81.0711 194.783 81.0949 194.742Z" fill="#DC3C36"/>
<path d="M144.529 61.4417C144.236 62.8356 144.066 64.2392 144.016 65.6624C144.01 65.8628 144.686 64.8853 144.736 64.8055C145.011 64.3587 145.591 63.6261 145.61 63.0698C145.66 61.6465 145.83 60.2429 146.123 58.849C146.164 58.6534 145.917 58.9433 145.938 58.9258C145.736 59.0951 145.535 59.4936 145.404 59.7059C145.085 60.2244 144.657 60.833 144.529 61.4417Z" fill="#DC3C36"/>
<path d="M162.519 63.8789C161.419 66.3027 160.318 68.7265 159.217 71.1503C158.979 71.6743 159.089 71.6045 159.41 71.2616C159.883 70.7562 160.241 69.9568 160.525 69.3296C161.626 66.9058 162.727 64.4823 163.828 62.0585C164.066 61.5341 163.956 61.6039 163.635 61.9468C163.162 62.4523 162.804 63.2517 162.519 63.8789Z" fill="#DC3C36"/>
<path d="M170.616 66.6057C169.437 68.3244 168.259 70.0427 167.08 71.7614C166.667 72.3645 166.231 73.0087 165.965 73.6934C165.799 74.121 165.808 74.3162 166.158 73.8048C167.337 72.0865 168.515 70.3678 169.694 68.6491C170.107 68.0464 170.543 67.4022 170.81 66.7175C170.975 66.2895 170.967 66.0947 170.616 66.6057Z" fill="#DC3C36"/>
<path d="M182.083 71.8428C181.719 72.231 181.305 72.6719 180.936 73.1009C180.475 73.6372 180.119 74.3093 179.808 74.9417C179.762 75.0378 179.716 75.1343 179.67 75.2304C179.609 75.3544 179.561 75.4831 179.527 75.6168C179.53 75.6398 179.533 75.6631 179.535 75.6865C179.612 75.6631 179.671 75.6145 179.712 75.5396C179.897 75.3247 180.082 75.1098 180.275 74.9009C180.326 74.8448 180.35 74.8211 180.284 74.8908C180.332 74.8396 180.381 74.7884 180.43 74.7368C180.573 74.5858 180.717 74.4336 180.859 74.2815C181.065 74.0629 181.238 73.753 181.393 73.5014C181.605 73.1581 181.81 72.8029 181.987 72.4407C182.033 72.3446 182.08 72.2481 182.126 72.152C182.187 72.028 182.234 71.8992 182.268 71.766C182.266 71.7426 182.263 71.7192 182.26 71.6962C182.183 71.7192 182.124 71.7682 182.083 71.8428Z" fill="#DC3C36"/>
<path d="M189.223 76.639C187.484 78.1053 185.745 79.5716 184.006 81.0379C183.538 81.432 183.225 82.1338 182.94 82.6631C182.819 82.8898 182.531 83.2643 182.532 83.5159C182.532 83.5463 182.413 83.8362 182.557 83.7144C184.296 82.2481 186.036 80.7818 187.775 79.3155C188.243 78.9214 188.556 78.2196 188.841 77.69C188.973 77.444 189.22 77.1133 189.249 76.8375C189.253 76.8041 189.366 76.5191 189.223 76.639Z" fill="#DC3C36"/>
<path d="M195.81 82.522C194.273 83.9148 192.627 85.1633 190.871 86.2681C190.399 86.5654 190.061 87.4178 189.805 87.8936C189.718 88.0558 189.312 89.0144 189.423 88.9446C191.178 87.8398 192.824 86.5913 194.361 85.1985C194.823 84.7803 195.136 84.1145 195.427 83.573C195.559 83.3269 195.806 82.9963 195.836 82.7205C195.839 82.6919 195.949 82.3958 195.81 82.522Z" fill="#DC3C36"/>
<path d="M202.207 91.6081C199.865 92.0668 197.647 92.9508 195.647 94.2535C195.174 94.5619 194.841 95.3965 194.581 95.879C194.493 96.0426 194.092 96.9994 194.198 96.93C196.164 95.6493 198.329 94.7909 200.63 94.3403C200.988 94.2702 201.39 93.3379 201.555 93.0533C201.635 92.9141 202.162 91.617 202.207 91.6081Z" fill="#DC3C36"/>
<path d="M205.729 98.6873C204.946 98.9222 204.164 99.1568 203.381 99.3917C203.248 99.4314 203.12 99.6441 203.054 99.7361C202.836 100.035 202.639 100.358 202.456 100.679C202.271 101.002 202.089 101.328 201.938 101.668C201.919 101.71 201.776 102.132 201.804 102.124C202.586 101.889 203.369 101.654 204.152 101.42C204.284 101.38 204.412 101.167 204.479 101.075C204.697 100.776 204.894 100.453 205.077 100.132C205.261 99.8096 205.444 99.483 205.595 99.1431C205.613 99.1011 205.757 98.6788 205.729 98.6873Z" fill="#DC3C36"/>
<path d="M213.228 108.72C209.243 109.608 205.257 110.497 201.272 111.385C200.908 111.466 200.516 112.379 200.347 112.672C200.264 112.817 199.751 114.105 199.695 114.117C203.68 113.229 207.665 112.341 211.65 111.452C212.015 111.371 212.406 110.458 212.576 110.165C212.659 110.02 213.172 108.732 213.228 108.72Z" fill="#DC3C36"/>
<path d="M214.885 118.104C212.141 118.037 209.405 118.122 206.67 118.36C206.34 118.389 205.89 119.396 205.745 119.648C205.676 119.767 205.096 121.092 205.093 121.093C207.828 120.855 210.563 120.769 213.308 120.836C213.99 120.853 214.616 118.097 214.885 118.104Z" fill="#DC3C36"/>
<path d="M216.761 128.547C212.931 128.373 209.157 128.772 205.448 129.742C205.075 129.84 204.699 130.724 204.522 131.03C204.433 131.183 203.941 132.456 203.87 132.475C207.58 131.504 211.353 131.105 215.184 131.279C215.849 131.309 216.514 128.536 216.761 128.547Z" fill="#DC3C36"/>
<path d="M217.803 144.644C215.054 144.51 212.319 144.256 209.592 143.884C209.005 143.804 208.17 146.637 208.015 146.616C210.742 146.988 213.477 147.242 216.226 147.377C216.888 147.409 217.559 144.633 217.803 144.644Z" fill="#DC3C36"/>
<path d="M213.698 162.569C212.989 162.111 212.207 161.859 211.365 161.815C211.26 161.81 211.06 162.128 211.037 162.159C210.819 162.458 210.622 162.782 210.439 163.102C210.38 163.206 209.741 164.545 209.787 164.547C210.63 164.591 211.412 164.843 212.12 165.301C212.272 165.399 213.94 162.725 213.698 162.569Z" fill="#DC3C36"/>
<path d="M211.365 172.65C209.479 171.822 207.594 170.995 205.709 170.168C205.398 170.031 204.015 172.849 204.132 172.9C206.017 173.727 207.902 174.555 209.787 175.382C210.098 175.518 211.482 172.701 211.365 172.65Z" fill="#DC3C36"/>
<path d="M108.357 70.3404C108.468 70.7211 108.578 71.1019 108.688 71.4823C108.705 71.5409 109.071 71.0622 109.016 71.1383C109.234 70.8395 109.431 70.5155 109.614 70.1953C109.798 69.8728 109.984 69.5469 110.131 69.2062C110.186 69.0808 110.306 68.8893 110.266 68.7501C110.155 68.3697 110.045 67.9889 109.934 67.6082C109.918 67.5495 109.551 68.0286 109.607 67.9526C109.389 68.2513 109.192 68.5749 109.009 68.8952C108.825 69.2177 108.639 69.5436 108.491 69.8843C108.437 70.0097 108.317 70.2012 108.357 70.3404Z" fill="#DC3C36"/>
<path d="M176.655 79.7753C176.642 79.8406 176.628 79.9056 176.615 79.9709C176.575 80.168 176.818 79.8729 176.8 79.8941C176.886 79.7879 176.967 79.6781 177.041 79.5641C177.144 79.4176 177.242 79.2672 177.334 79.1136C177.545 78.7681 177.75 78.4166 177.928 78.0529C177.974 77.9568 178.02 77.8607 178.066 77.7642C178.127 77.6402 178.175 77.5118 178.209 77.3782C178.222 77.3129 178.236 77.248 178.249 77.1827C178.289 76.9852 178.046 77.2806 178.064 77.2595C177.978 77.3652 177.897 77.4751 177.823 77.5894C177.72 77.736 177.622 77.8863 177.53 78.0396C177.319 78.3855 177.115 78.7369 176.936 79.1002C176.89 79.1967 176.844 79.2929 176.798 79.3893C176.737 79.5129 176.689 79.6417 176.655 79.7753Z" fill="#DC3C36"/>
<path d="M99.1448 102.278C95.1564 105.142 87.5881 111.994 82.1678 117.415C80.8385 117.21 80.1222 116.392 79.8157 115.573C86.9746 106.062 99.9632 93.0738 105.076 90.5171C106.918 91.233 107.94 91.9489 108.758 93.7897C106.509 107.29 99.8611 149.732 96.9972 167.63C95.4633 169.573 91.6793 169.573 89.4292 168.857C91.8838 152.289 97.202 119.664 99.9632 102.585L99.1448 102.278Z" fill="#DC3C36"/>
<path d="M122.462 137.971C122.462 155.664 130.644 164.869 140.462 164.869C153.348 164.869 168.28 150.141 168.28 122.528C168.28 104.733 160.098 95.5285 150.28 95.5285C137.394 95.5285 122.462 110.255 122.462 137.971ZM175.848 118.642C175.848 145.232 158.871 169.88 136.575 169.88C123.485 169.88 114.894 157.402 114.894 141.858C114.894 115.062 132.689 90.6193 152.837 90.6193C167.359 90.6193 175.848 103.096 175.848 118.642Z" fill="#DC3C36"/>
<path d="M177.084 166.167C174.571 166.167 173.187 164.275 173.187 160.838C173.187 158.847 173.818 155.183 174.429 151.639L174.637 150.426C173.903 150.396 173.144 150.362 172.351 150.263L172.309 150.257L172.293 150.218C172.154 149.87 172.146 149.346 172.403 149.016L172.427 148.985L172.465 148.988C173.107 149.042 173.692 149.068 174.253 149.068C174.455 149.068 174.657 149.064 174.86 149.057C175.285 146.548 175.482 144.91 175.482 143.903V143.868L175.51 143.846C176.398 143.163 176.975 143.067 177.842 142.967L177.922 142.957V143.038C177.922 144.427 177.578 146.693 177.203 148.949C178.585 148.853 180.023 148.671 181.597 148.391L181.643 148.383L181.669 148.422C181.954 148.849 181.852 149.642 181.569 150.065L181.551 150.093L181.517 150.097C180.279 150.231 178.644 150.389 176.946 150.428C176.822 151.155 176.693 151.892 176.566 152.625C175.997 155.879 175.459 158.953 175.459 160.672C175.459 162.4 175.92 164.46 178.115 164.46C180.508 164.46 182.962 160.562 183.668 157.065L183.683 156.991L184.926 157.292L184.905 157.364C183.781 161.425 181.058 166.167 177.084 166.167Z" fill="#DC3C36"/>
<path d="M196.281 166.167C194.154 166.167 192.982 164.475 192.982 161.404C192.982 160.319 193.244 159.025 193.496 157.773C193.75 156.514 194.013 155.212 194.013 154.117C194.013 151.882 193.702 150.496 192.156 150.496C188.724 150.496 186.582 156.744 186.038 160.682C185.747 162.788 185.606 164.211 185.606 165.031V165.062L185.584 165.083C185.054 165.582 184.211 165.867 183.271 165.867H183.2V165.796C183.2 163.788 184.08 158.27 184.931 152.932C185.769 147.677 186.561 142.714 186.561 140.942V140.905L186.59 140.884C187.449 140.257 188.006 140.146 188.917 140.006L189 139.993V140.077C189 141.9 188.296 146.313 187.552 150.986C187.448 151.638 187.343 152.296 187.24 152.951C188.716 150.167 190.604 148.756 192.854 148.756C195.275 148.756 196.452 150.335 196.452 153.585C196.452 154.69 196.207 155.998 195.947 157.381C195.689 158.757 195.422 160.179 195.422 161.371C195.422 163.536 195.987 164.46 197.313 164.46C199.704 164.46 202.158 160.562 202.865 157.065L202.88 156.991L204.121 157.292L204.102 157.363C202.957 161.745 200.094 166.167 196.281 166.167Z" fill="#DC3C36"/>
<path d="M69.9065 220.815C71.3479 220.971 72.7678 221.414 73.9339 222.075L73.9658 222.094L73.9896 222.122C74.017 222.155 74.0486 222.197 74.0809 222.247C73.3538 219.261 73.1642 215.87 73.1234 213.789L69.9065 220.815ZM67.6081 222.303C62.9019 222.584 60.8582 224.57 60.9524 226.308C61.0203 227.539 61.8665 227.797 62.5646 227.797C62.6295 227.797 62.6852 227.795 62.7294 227.793C65.0418 227.666 66.2042 225.322 67.6081 222.303ZM62.4755 229.07C60.7186 229.071 59.5303 228.098 59.4479 226.593C59.2924 223.744 63.3851 221.013 68.206 220.749L68.3318 220.743L73.2466 210.363L73.2755 210.336C73.5557 210.076 73.9202 210.021 74.177 210.021C74.4201 210.021 74.6728 210.07 74.8695 210.155L74.9901 210.207L74.9935 210.338C75.2455 220.66 76.822 226.822 79.2102 226.822C79.2361 226.822 79.261 226.821 79.2866 226.82C80.5963 226.748 81.4399 225.199 82.1083 221.64L82.1457 221.438L83.3003 221.652L83.2669 221.852C82.7525 224.911 81.4117 228.224 79.1897 228.346C79.1203 228.349 79.0513 228.351 78.9838 228.351C76.5871 228.351 75.1638 226.04 74.3206 223.146C74.3177 223.167 74.3139 223.188 74.3095 223.209L74.2627 223.433L74.0452 223.363C72.0234 222.712 70.7025 222.363 69.2229 222.294C68.2094 224.514 66.1563 228.877 62.7531 229.063C62.6588 229.068 62.5661 229.07 62.4755 229.07Z" fill="#DC3C36"/>
<path d="M85.8453 227.013C85.7195 226.051 85.7733 223.925 85.8353 221.463C85.8824 219.604 85.9351 217.499 85.9132 215.654L85.9121 215.571L85.9689 215.51C86.199 215.266 86.8046 215.059 87.2912 215.059C87.4467 215.059 87.5877 215.08 87.7102 215.119L87.8575 215.167L87.7926 217.145C88.5749 215.571 89.6526 214.686 91.0054 214.51C91.1597 214.489 91.3104 214.479 91.4529 214.479C92.914 214.479 93.7558 215.486 94.0267 217.558C94.1258 218.317 94.0757 219.232 94.0226 220.2C93.9703 221.147 93.9168 222.127 94.0192 222.915C94.1837 224.171 94.5362 224.707 95.1976 224.707C95.2584 224.707 95.3223 224.702 95.3894 224.694C96.881 224.499 98.1784 221.722 98.3421 219.369L98.3569 219.156L99.5397 219.284L99.5133 219.492C99.1196 222.604 97.536 225.899 94.8854 226.245C94.763 226.261 94.645 226.269 94.531 226.269C93.1831 226.269 92.3329 225.212 92.0723 223.215C91.9747 222.468 92.0367 221.559 92.0968 220.679C92.1558 219.813 92.2171 218.916 92.1232 218.194C91.9183 216.627 91.5847 216.044 90.8918 216.044C90.8324 216.044 90.7708 216.049 90.7062 216.057C88.5504 216.338 87.682 220.648 87.6411 223.299C87.6281 224.698 87.6352 225.68 87.7094 226.245L87.7209 226.329L87.669 226.397C87.3557 226.804 86.7605 227.1 86.0754 227.19L85.8716 227.217L85.8453 227.013Z" fill="#DC3C36"/>
<path d="M100.625 225.054C100.464 224.098 100.44 221.974 100.413 219.514C100.392 217.653 100.368 215.542 100.278 213.696L100.275 213.614L100.329 213.551C100.563 213.284 101.202 213.051 101.698 213.051C101.828 213.051 101.949 213.066 102.056 213.097L102.205 213.14L102.212 215.119C102.936 213.517 103.981 212.593 105.327 212.367C105.52 212.335 105.707 212.319 105.882 212.319C107.279 212.319 108.122 213.295 108.458 215.304C108.585 216.06 108.568 216.976 108.551 217.946C108.533 218.894 108.516 219.876 108.647 220.659C108.852 221.885 109.21 222.408 109.844 222.408C109.919 222.408 109.997 222.401 110.08 222.387C111.565 222.139 112.761 219.316 112.839 216.958L112.846 216.744L114.032 216.829L114.014 217.038C113.734 220.162 112.271 223.514 109.633 223.956C109.482 223.982 109.333 223.995 109.191 223.995C107.894 223.995 107.036 222.97 106.711 221.03C106.587 220.288 106.616 219.379 106.643 218.499C106.671 217.628 106.699 216.728 106.579 216.01C106.322 214.475 105.978 213.904 105.313 213.904C105.241 213.904 105.165 213.911 105.085 213.925C102.941 214.285 102.229 218.625 102.285 221.275C102.321 222.63 102.364 223.65 102.46 224.219L102.474 224.303L102.425 224.372C102.127 224.79 101.543 225.108 100.862 225.223L100.659 225.257L100.625 225.054Z" fill="#DC3C36"/>
<path d="M114.981 208.028C114.286 208.028 113.64 207.505 113.511 206.839C113.363 206.069 113.907 205.264 114.677 205.115C114.763 205.098 114.851 205.09 114.94 205.09C115.642 205.09 116.269 205.602 116.4 206.281C116.472 206.651 116.386 207.051 116.165 207.377C115.944 207.704 115.605 207.932 115.235 208.004C115.151 208.02 115.066 208.028 114.981 208.028ZM117.696 222.433C116.242 222.433 115.22 221.284 114.817 219.199C114.553 217.834 114.527 215.934 114.504 214.257C114.487 213.076 114.473 212.057 114.375 211.551L114.353 211.434L114.443 211.357C114.987 210.885 115.349 210.628 115.935 210.443L116.155 210.374L116.199 210.6C116.356 211.412 116.359 212.703 116.362 214.07C116.365 215.651 116.37 217.444 116.619 218.735C116.804 219.692 117.251 220.831 118.337 220.831C118.45 220.831 118.571 220.819 118.695 220.795C120.172 220.51 121.298 217.659 121.317 215.301L121.319 215.087L122.511 215.143L122.494 215.355C122.263 218.263 121.022 221.845 118.286 222.374C118.084 222.413 117.885 222.433 117.696 222.433Z" fill="#DC3C36"/>
<path d="M126.321 220.712C124.856 220.712 123.809 219.59 123.373 217.551C123.085 216.211 123.062 214.721 123.039 213.28C123.019 212.028 123 210.846 122.803 209.928L122.778 209.812L122.866 209.732C123.36 209.287 123.706 209 124.341 208.789L124.559 208.716L124.607 208.941C124.871 210.173 124.87 211.579 124.869 212.938C124.868 214.329 124.867 215.767 125.142 217.056C125.344 217.995 125.81 219.113 126.89 219.113C127.014 219.113 127.147 219.098 127.282 219.069C129.633 218.565 131.237 215.2 130.583 212.146C130.197 210.343 129.321 209.43 127.978 209.43C127.742 209.43 127.488 209.458 127.224 209.515L127.062 209.55L126.861 209.108L126.922 209.013C127.293 208.439 127.891 208.027 128.562 207.883C128.77 207.838 128.974 207.816 129.168 207.816C130.465 207.816 131.42 208.803 131.788 210.523C132.198 212.432 132.018 214.685 131.308 216.549C130.463 218.771 128.931 220.223 126.994 220.637C126.763 220.687 126.537 220.712 126.321 220.712Z" fill="#DC3C36"/>
<path d="M139.499 206.678C139.408 206.678 139.311 206.688 139.211 206.709C137.278 207.11 136.497 209.493 136.561 211.763C139.46 210.932 140.847 209.484 140.471 207.67C140.332 207.002 140.015 206.678 139.499 206.678ZM138.996 217.944C136.53 217.944 135.227 215.901 134.831 213.987C134.289 211.373 135.201 206.313 138.946 205.537C139.245 205.475 139.533 205.443 139.801 205.443C141.335 205.443 142.09 206.447 142.286 207.386C142.757 209.662 140.448 211.917 136.653 212.91C136.683 213.1 136.723 213.295 136.76 213.472C136.982 214.543 137.646 216.34 139.597 216.34C139.832 216.34 140.08 216.314 140.337 216.26C143.624 215.579 146.122 212.465 146.392 209.983L146.414 209.783L147.591 209.889L147.565 210.1C147.07 214.064 144.232 216.958 139.972 217.84C139.639 217.91 139.31 217.944 138.996 217.944Z" fill="#DC3C36"/>
<path d="M153.275 215.188C152.044 215.188 151.209 214.195 150.863 212.316C150.711 211.488 150.706 210.525 150.702 209.595C150.698 208.79 150.694 208.03 150.591 207.471C150.362 206.23 150.155 206.012 147.646 205.858C147.709 207.146 147.68 208.538 147.557 210.106L147.556 210.127L147.55 210.147C147.485 210.37 147.203 210.45 146.961 210.45C146.647 210.45 146.427 210.319 146.388 210.107L146.382 210.078L146.385 210.048C146.564 208.408 146.538 206.662 146.489 205.77C145.697 205.618 145.272 205.172 145.118 204.342C144.951 203.437 145.486 202.779 146.098 202.665L146.127 202.66L146.157 202.663C146.873 202.737 147.365 203.405 147.585 204.597C147.796 204.607 148.008 204.616 148.218 204.624C150.126 204.7 152.098 204.778 152.459 206.735C152.529 207.114 152.523 207.78 152.516 208.552C152.506 209.605 152.494 210.916 152.678 211.912C152.895 213.092 153.257 213.595 153.887 213.595C153.97 213.595 154.059 213.587 154.153 213.569C155.633 213.296 156.784 210.455 156.824 208.096L156.827 207.883L158.016 207.949L158.001 208.158C157.77 211.286 156.361 214.66 153.731 215.145C153.575 215.174 153.422 215.188 153.275 215.188Z" fill="#DC3C36"/>
<path d="M161.151 213.786C159.327 213.787 158.336 212.77 158.187 211.825C158.04 210.894 158.437 210.025 159.248 209.5L159.329 209.447L159.422 209.476C159.484 209.496 159.6 209.533 159.672 209.673L159.706 209.741L159.689 209.814C159.584 210.256 159.578 210.755 159.67 211.339C159.767 211.954 160.283 212.672 161.417 212.672C161.573 212.672 161.738 212.658 161.908 212.631C162.889 212.476 163.865 211.854 163.663 210.572C163.515 209.632 162.445 208.846 161.312 208.014C160.042 207.08 158.727 206.114 158.515 204.772C158.228 202.945 160.3 201.583 161.843 201.339C162.019 201.312 162.189 201.297 162.347 201.297C163.422 201.297 164.087 201.917 164.325 203.139L164.33 203.162L164.328 203.187C164.32 203.401 164.193 203.558 164.005 203.588L163.909 203.603L163.837 203.539C163.479 203.223 162.747 202.693 161.865 202.693C161.754 202.693 161.642 202.702 161.534 202.719C160.489 202.884 159.904 203.397 160.008 204.056C160.107 204.681 161.103 205.431 162.158 206.226C163.618 207.326 165.274 208.573 165.518 210.119C165.729 211.457 164.162 213.378 162.033 213.714C161.729 213.762 161.432 213.786 161.151 213.786Z" fill="#DC3C36"/>
<path d="M173.214 201.048C173.052 201.048 172.883 201.058 172.714 201.08C170.231 201.39 169.127 204.618 169.494 207.561C169.745 209.565 170.553 210.761 171.655 210.761C171.726 210.761 171.798 210.756 171.872 210.747C173.586 210.533 174.407 207.196 174.588 204.403C174.599 203.697 174.638 202.902 174.676 202.132C174.688 201.883 174.701 201.632 174.712 201.382C174.231 201.157 173.739 201.048 173.214 201.048ZM170.997 212.317C168.846 212.317 167.796 210.046 167.53 207.92C167.383 206.738 167.528 204.852 168.378 203.104C169.014 201.795 170.249 200.176 172.521 199.892C172.836 199.853 173.144 199.833 173.437 199.833C173.923 199.833 174.385 199.888 174.813 199.998C175.071 199.692 175.506 199.517 176.009 199.517C176.191 199.517 176.377 199.541 176.546 199.587L176.706 199.631L176.698 199.795C176.495 204.079 176.454 206.747 176.576 207.724C176.759 209.191 177.325 209.934 178.26 209.934C178.34 209.934 178.424 209.929 178.51 209.918C180.096 209.72 182.708 207.513 183.191 204.507L183.223 204.313L184.392 204.447L184.36 204.657C183.912 207.629 181.53 211.026 177.998 211.467C177.85 211.485 177.704 211.494 177.565 211.494C176.191 211.494 175.234 210.609 174.821 208.98C174.045 210.991 172.891 212.104 171.382 212.293C171.251 212.31 171.122 212.317 170.997 212.317Z" fill="#DC3C36"/>
<path d="M189.744 210.368C188.78 210.368 187.59 209.825 187.4 207.237C187.337 206.396 187.437 205.438 187.533 204.511C187.617 203.712 187.695 202.957 187.654 202.391C187.561 201.132 187.379 200.893 184.901 200.469C184.824 201.755 184.644 203.136 184.352 204.681L184.348 204.702L184.34 204.721C184.277 204.876 184.094 204.965 183.839 204.965C183.531 204.965 183.211 204.839 183.19 204.556L183.187 204.526L183.194 204.496C183.547 202.892 183.712 201.151 183.761 200.255C182.99 200.018 182.616 199.529 182.553 198.687C182.485 197.769 183.087 197.172 183.709 197.126L183.739 197.124L183.768 197.13C184.472 197.282 184.888 197.999 184.977 199.208C185.187 199.241 185.396 199.272 185.604 199.304C187.492 199.586 189.444 199.878 189.591 201.862C189.619 202.247 189.541 202.909 189.45 203.676C189.326 204.722 189.172 206.023 189.246 207.033C189.34 208.303 189.689 208.844 190.413 208.844C190.452 208.844 190.492 208.843 190.534 208.84C192.034 208.729 193.486 206.029 193.783 203.689L193.81 203.477L194.983 203.671L194.946 203.877C194.377 206.962 192.61 210.164 189.943 210.36C189.875 210.366 189.809 210.368 189.744 210.368Z" fill="#DC3C36"/>
<path d="M197.911 215.99C195.409 215.991 194.046 214.291 194.035 212.692C194.026 211.382 194.664 210.264 195.931 209.368L196.021 209.304L196.584 209.525L196.449 209.736C195.864 210.65 195.748 211.384 195.754 212.206C195.766 214.076 197.17 214.74 198.369 214.74C200.606 214.725 201.169 212.19 201.675 208.877L201.711 208.625C201.756 208.306 201.803 207.982 201.852 207.657C200.914 209.006 199.772 209.693 198.446 209.702C196.655 209.702 195.633 208.415 195.617 206.171C195.608 204.801 195.886 203.337 196.156 201.922C196.39 200.692 196.611 199.53 196.605 198.591L196.604 198.472L196.706 198.412C197.327 198.048 197.731 197.861 198.34 197.787L198.569 197.759L198.571 197.989C198.58 199.249 198.3 200.625 198.029 201.955C197.752 203.318 197.465 204.726 197.474 206.045C197.484 207.491 198.038 208.224 199.12 208.224C200.917 208.212 202.118 205.241 202.649 202.465L203.332 198.11L203.401 198.06C203.591 197.922 203.911 197.759 204.363 197.759C204.614 197.759 204.879 197.81 205.151 197.91L205.312 197.969L205.283 198.137C204.827 200.81 204.168 204.816 203.617 208.723C202.823 213.459 200.864 215.97 197.948 215.99H197.911Z" fill="#DC3C36"/>
</g>
</svg>
