<svg width="16" height="20" viewBox="0 0 16 20" fill="none" xmlns="http://www.w3.org/2000/svg">
<path d="M16 3.04832C16.0011 2.32184 15.7396 1.61905 15.263 1.06762C15.0009 0.76337 14.6811 0.51331 14.3217 0.331724C13.9622 0.150138 13.5703 0.0405827 13.1682 0.00931483C12.7661 -0.021953 12.3617 0.0256788 11.9782 0.14949C11.5946 0.273302 11.2394 0.470867 10.9328 0.730905L0 9.99904L10.9313 19.2687C11.5505 19.794 12.3547 20.0537 13.1669 19.9907C13.9791 19.9277 14.7328 19.5471 15.2622 18.9327C15.7916 18.3183 16.0533 17.5204 15.9899 16.7145C15.9264 15.9086 15.5428 15.1607 14.9236 14.6354L9.45719 10.0006L14.9236 5.36573C15.2612 5.07962 15.5322 4.72428 15.718 4.3242C15.9039 3.92413 16.0001 3.48884 16 3.04832Z" fill="#DC3C36"/>
</svg>
