<svg width="16" height="20" viewBox="0 0 16 20" fill="none" xmlns="http://www.w3.org/2000/svg">
<path d="M4.76837e-06 3.04832C-0.00113678 2.32184 0.260379 1.61905 0.737048 1.06762C0.999069 0.76337 1.31892 0.51331 1.67835 0.331724C2.03777 0.150138 2.42973 0.0405827 2.83183 0.00931483C3.23393 -0.021953 3.63829 0.0256788 4.02184 0.14949C4.40538 0.273302 4.76059 0.470867 5.06718 0.730905L16 9.99903L5.06872 19.2687C4.44951 19.794 3.64535 20.0537 2.83315 19.9907C2.02094 19.9277 1.26723 19.5471 0.737817 18.9327C0.208403 18.3183 -0.0533485 17.5204 0.0101471 16.7145C0.0736427 15.9086 0.457185 15.1607 1.0764 14.6354L6.54281 10.0006L1.0764 5.36573C0.738828 5.07962 0.467792 4.72428 0.281966 4.3242C0.0961399 3.92413 -5.72205e-05 3.48884 4.76837e-06 3.04832Z" fill="#DC3C36"/>
</svg>
