<svg width="375" height="667" viewBox="0 0 375 667" fill="none" xmlns="http://www.w3.org/2000/svg">
<g clip-path="url(#clip0_256_33)">
<path d="M82.44 -79.3898C-16.77 -30.5798 -238.89 219.04 -143.24 267.68C-47.6 316.33 69.1 321.99 122.42 205.7C175.73 89.4102 286.03 136.38 315.57 49.8202C345.11 -36.7298 181.66 -128.22 82.44 -79.3898Z" fill="#F6F5F4"/>
<path d="M221.41 505.08C168.07 621.42 57.74 574.42 28.17 661.04C-1.40002 747.65 162.14 839.15 261.41 790.31C360.65 741.47 582.86 491.74 487.17 443.07C391.47 394.39 274.75 388.74 221.41 505.08Z" fill="#F6F5F4"/>
<path d="M452.44 -42.8499C356.34 -118.15 190.58 -126.19 131.75 -90.0099C72.92 -53.8299 64.88 67.0301 217.13 101.87C369.38 136.71 329.96 275.01 452.44 258.32C574.93 241.66 548.52 32.4401 452.44 -42.8499Z" fill="#DC3C36"/>
<path d="M150.14 577.14C-2.11002 542.3 37.31 404 -85.18 420.69C-207.67 437.38 -181.29 646.6 -85.18 721.9C10.93 797.2 176.69 805.24 235.52 769.03C294.35 732.82 302.39 611.98 150.14 577.14Z" fill="#DC3C36"/>
</g>
<defs>
<clipPath id="clip0_256_33">
<rect width="375" height="667" fill="white" transform="matrix(-1 0 0 1 375 0)"/>
</clipPath>
</defs>
</svg>
