<svg width="1920" height="1080" viewBox="0 0 1920 1080" fill="none" xmlns="http://www.w3.org/2000/svg">
<g clip-path="url(#clip0_258_38)">
<path d="M7.17385 -69.6501C-165.011 175.95 -175.685 868.6 45.6849 912.63C267.065 956.65 435.305 797.42 408.739 452.34C382.184 107.27 778.271 173.86 734.413 -69.6501C690.565 -313.17 179.358 -315.26 7.17385 -69.6501Z" fill="#F6F5F4"/>
<path d="M1485.4 756.65C1511.97 1101.73 1115.88 1035.14 1159.74 1278.65C1203.59 1522.17 1714.79 1524.26 1886.98 1278.65C2059.14 1033.05 2069.83 340.39 1848.46 296.37C1627.09 252.34 1458.84 411.58 1485.4 756.65Z" fill="#F6F5F4"/>
<path d="M1151.73 -432C953.119 -341.87 881.293 31.2002 1345.84 197.68C1810.37 364.16 1633.27 779.58 2024.28 774.43C2415.17 769.27 2412.92 108.1 2140.25 -162.85C1867.58 -433.81 1350.33 -522.13 1151.73 -432Z" fill="#DC3C36"/>
<path d="M745.521 1005.04C280.978 838.57 458.076 423.14 67.0538 428.29C-323.837 433.45 -321.587 1094.48 -48.9028 1365.58C223.772 1636.54 741.021 1724.87 939.63 1634.73C1138.23 1544.6 1210.05 1171.52 745.521 1005.04Z" fill="#DC3C36"/>
</g>
<defs>
<clipPath id="clip0_258_38">
<rect width="1920" height="1080" fill="white" transform="matrix(-1 0 0 1 1920 0)"/>
</clipPath>
</defs>
</svg>
