<svg width="1078" height="1078" viewBox="0 0 1078 1078" fill="none" xmlns="http://www.w3.org/2000/svg">
<path d="M1049.92 543.787L1065.49 544.448L1064.33 571.57L992.859 568.534L993.6 551.106L1049.51 553.48L1049.92 543.787Z" fill="#F6F5F4"/>
<path d="M1028.62 590.132C1039.71 591.941 1048.1 595.494 1053.79 600.791C1059.47 606.152 1061.53 613.605 1059.98 623.148C1058.42 632.691 1054.1 639.07 1047.03 642.284C1039.94 645.563 1030.85 646.298 1019.76 644.489C1008.54 642.659 1000.09 639.064 994.409 633.702C988.72 628.405 986.654 620.985 988.21 611.442C989.767 601.899 994.089 595.487 1001.18 592.208C1008.26 588.994 1017.4 588.302 1028.62 590.132ZM1022.41 628.24C1028.92 629.302 1034.03 629.408 1037.75 628.558C1041.52 627.717 1043.78 625.073 1044.5 620.624C1045.23 616.174 1043.93 612.951 1040.62 610.954C1037.37 608.968 1032.49 607.443 1025.97 606.381C1021.59 605.666 1017.9 605.329 1014.92 605.372C1012 605.425 1009.51 606.078 1007.45 607.331C1005.44 608.659 1004.19 610.871 1003.69 613.966C1003.18 617.061 1003.67 619.524 1005.16 621.356C1006.7 623.262 1008.85 624.705 1011.6 625.684C1014.42 626.673 1018.02 627.525 1022.41 628.24Z" fill="#F6F5F4"/>
<path d="M984.805 685.308L971.163 681.332L973.548 673.146C975.248 667.313 977.985 663.177 981.758 660.738C985.594 658.317 990.742 658.048 997.203 659.931L1018.09 666.018L1019.95 659.62L1033.31 663.514L1031.45 669.912L1044.25 673.641L1039.56 689.73L1026.76 686L1023.69 696.538L1010.33 692.644L1013.4 682.107L992.326 675.965C990.757 675.508 989.519 675.555 988.609 676.107C987.7 676.658 986.989 677.812 986.478 679.568L984.805 685.308Z" fill="#F6F5F4"/>
<path d="M1004.31 747.752C1001.8 753.5 997.87 757.275 992.522 759.077C987.235 760.904 981.267 760.368 974.62 757.469L945.337 744.695L951.998 729.424L979.215 741.297C982.569 742.76 985.553 743.028 988.167 742.101C990.781 741.174 992.728 739.244 994.008 736.31C995.288 733.375 995.378 730.635 994.279 728.088C993.181 725.542 990.954 723.537 987.601 722.074L960.384 710.202L967.084 694.842L1033.56 723.838L1026.85 739.198L1003.77 729.128C1005.31 731.651 1006.15 734.548 1006.29 737.817C1006.43 741.087 1005.77 744.398 1004.31 747.752Z" fill="#F6F5F4"/>
<path d="M947.735 796.487C952.279 799.792 955.653 803.539 957.857 807.728C960.023 811.97 960.955 816.242 960.652 820.546C960.349 824.85 958.871 828.825 956.22 832.47C953.952 835.587 951.339 837.847 948.38 839.249C945.382 840.705 942.392 841.317 939.409 841.086L945.67 845.64L935.812 859.192L891.59 827.024L901.448 813.472L907.709 818.026C906.609 815.207 906.29 812.147 906.752 808.847C907.175 805.6 908.52 802.418 910.787 799.301C913.401 795.708 916.708 793.105 920.71 791.491C924.764 789.916 929.142 789.506 933.845 790.261C938.561 791.106 943.192 793.182 947.735 796.487ZM923.559 829.556C926.94 832.016 930.3 833.006 933.639 832.526C936.939 832.098 939.569 830.538 941.529 827.843C943.489 825.149 944.183 822.139 943.612 818.815C943.055 815.583 941.086 812.736 937.705 810.277C934.323 807.817 930.956 806.782 927.603 807.17C924.265 807.65 921.616 809.238 919.656 811.932C917.696 814.627 917.02 817.609 917.63 820.881C918.201 824.205 920.178 827.096 923.559 829.556Z" fill="#F6F5F4"/>
<path d="M896.554 902.415C892.043 906.959 886.969 909.102 881.332 908.846C875.696 908.681 870.304 906.045 865.157 900.935L842.485 878.427L854.222 866.604L875.295 887.524C877.892 890.102 880.576 891.432 883.348 891.514C886.12 891.596 888.634 890.502 890.89 888.23C893.145 885.958 894.222 883.436 894.119 880.665C894.017 877.893 892.667 875.219 890.071 872.641L868.998 851.721L880.804 839.828L919.612 878.355L907.805 890.247L902.659 885.138C903.178 888.047 902.911 891.004 901.86 894.011C900.854 897.064 899.086 899.865 896.554 902.415Z" fill="#F6F5F4"/>
<path d="M836.39 953.133C831.24 956.937 825.899 958.283 820.366 957.171C814.82 956.15 809.893 952.723 805.584 946.89L786.603 921.192L800.003 911.294L817.646 935.179C819.819 938.122 822.27 939.845 824.997 940.348C827.725 940.852 830.376 940.152 832.951 938.25C835.526 936.348 836.974 934.02 837.294 931.265C837.615 928.51 836.688 925.661 834.515 922.719L816.872 898.834L830.352 888.877L862.842 932.863L849.362 942.82L845.054 936.986C845.123 939.94 844.41 942.823 842.913 945.634C841.454 948.498 839.28 950.998 836.39 953.133Z" fill="#F6F5F4"/>
<path d="M795.866 985.308C798.414 983.841 800.933 983.371 803.422 983.897C805.888 984.513 807.756 985.924 809.028 988.132C810.332 990.397 810.616 992.722 809.878 995.107C809.117 997.581 807.462 999.552 804.915 1001.02C802.424 1002.45 799.945 1002.86 797.48 1002.25C794.99 1001.72 793.093 1000.33 791.789 998.061C790.517 995.853 790.262 993.512 791.024 991.038C791.761 988.653 793.375 986.743 795.866 985.308ZM785.811 984.54L758.519 937.153L773.041 928.79L800.333 976.177L785.811 984.54Z" fill="#F6F5F4"/>
<path d="M728.571 969.404L733.449 1009.88L717.127 1017.07L712.832 959.205L731.754 950.867L771.562 993.083L755.151 1000.31L728.571 969.404Z" fill="#F6F5F4"/>
<path d="M641.373 1011.64C640.957 1010.13 640.618 1008.53 640.357 1006.84L676.925 996.783C675.772 993.577 674.039 991.343 671.727 990.082C669.37 988.901 666.836 988.683 664.128 989.428C660.096 990.537 657.761 993.009 657.121 996.844L639.924 1001.57C639.853 997.867 640.602 994.307 642.17 990.894C643.675 987.498 645.944 984.537 648.975 982.009C652.007 979.481 655.664 977.628 659.948 976.45C665.113 975.029 670.015 974.866 674.653 975.962C679.291 977.058 683.307 979.341 686.701 982.812C690.095 986.283 692.546 990.758 694.054 996.239C695.561 1001.72 695.776 1006.81 694.697 1011.51C693.556 1016.23 691.272 1020.25 687.847 1023.56C684.422 1026.87 680.095 1029.25 674.867 1030.69C669.764 1032.09 664.934 1032.27 660.377 1031.22C655.819 1030.17 651.892 1027.96 648.595 1024.6C645.236 1021.25 642.828 1016.94 641.373 1011.64ZM659.078 1011.35C659.841 1014.12 661.392 1016.06 663.732 1017.18C666.073 1018.3 668.66 1018.47 671.495 1017.69C674.204 1016.94 676.286 1015.52 677.743 1013.43C679.137 1011.35 679.655 1008.8 679.299 1005.79L659.078 1011.35Z" fill="#F6F5F4"/>
<path d="M610.752 1034.01C609.252 1037.27 607.171 1039.96 604.51 1042.07C601.859 1044.24 598.756 1045.59 595.201 1046.11L592.614 1028.57L597.171 1027.89C601.307 1027.28 604.276 1025.92 606.078 1023.81C607.889 1021.76 608.466 1018.5 607.809 1014.04L604.107 988.932L620.686 986.488L628.66 1040.59L612.082 1043.03L610.752 1034.01Z" fill="#F6F5F4"/>
<path d="M553.075 992.589C557.842 992.442 562.112 993.127 565.885 994.645C569.657 996.162 572.665 998.292 574.906 1001.03C577.15 1003.84 578.457 1007 578.827 1010.52L562.273 1011.03C562.018 1009.14 561.09 1007.64 559.486 1006.51C557.882 1005.38 555.938 1004.85 553.652 1004.93C551.563 1004.99 549.975 1005.43 548.889 1006.25C547.74 1007.13 547.185 1008.23 547.226 1009.54C547.274 1011.1 548.126 1012.22 549.78 1012.89C551.437 1013.62 554.108 1014.39 557.793 1015.19C561.74 1015.98 565.034 1016.83 567.676 1017.73C570.321 1018.69 572.623 1020.22 574.583 1022.32C576.546 1024.48 577.584 1027.42 577.699 1031.15C577.796 1034.28 577.035 1037.15 575.416 1039.75C573.733 1042.41 571.25 1044.55 567.966 1046.15C564.617 1047.76 560.624 1048.63 555.987 1048.78C549.13 1048.99 543.691 1047.46 539.668 1044.18C535.579 1040.91 533.155 1036.48 532.393 1030.88L547.87 1030.4C548.19 1032.29 549.085 1033.76 550.556 1034.83C551.962 1035.89 553.807 1036.39 556.093 1036.32C558.052 1036.26 559.542 1035.82 560.562 1035.01C561.585 1034.26 562.076 1033.23 562.036 1031.92C561.987 1030.36 561.135 1029.21 559.478 1028.47C557.756 1027.74 555.12 1027.04 551.569 1026.36C547.488 1025.44 544.158 1024.5 541.579 1023.53C539.002 1022.63 536.731 1021.07 534.767 1018.84C532.739 1016.68 531.634 1013.71 531.452 1009.93C531.353 1006.73 532.179 1003.82 533.928 1001.22C535.615 998.685 538.134 996.646 541.485 995.104C544.771 993.565 548.635 992.726 553.075 992.589Z" fill="#F6F5F4"/>
<path d="M514.668 1021.4C514.041 1026.99 512.452 1031.77 509.901 1035.76C507.284 1039.74 504.031 1042.66 500.14 1044.53C496.249 1046.39 492.064 1047.07 487.584 1046.57C483.753 1046.14 480.497 1044.98 477.815 1043.1C475.068 1041.22 473.058 1038.92 471.784 1036.22L470.92 1043.91L454.267 1042.04L460.367 987.697L477.02 989.566L476.157 997.26C478.064 994.91 480.566 993.12 483.663 991.89C486.694 990.652 490.126 990.248 493.956 990.678C498.371 991.174 502.269 992.762 505.65 995.442C509.023 998.188 511.544 1001.79 513.213 1006.25C514.81 1010.77 515.295 1015.82 514.668 1021.4ZM473.97 1016.74C473.504 1020.89 474.305 1024.3 476.372 1026.97C478.375 1029.62 481.032 1031.14 484.343 1031.51C487.654 1031.88 490.613 1031 493.22 1028.86C495.755 1026.78 497.256 1023.66 497.722 1019.5C498.189 1015.35 497.424 1011.91 495.429 1009.19C493.361 1006.52 490.672 1005 487.36 1004.63C484.049 1004.26 481.123 1005.15 478.581 1007.29C475.974 1009.43 474.437 1012.58 473.97 1016.74Z" fill="#F6F5F4"/>
<path d="M416.982 1024.25C414.359 1026.7 411.417 1028.39 408.156 1029.34C404.879 1030.35 401.496 1030.42 398.007 1029.56L402.255 1012.34L406.727 1013.44C410.787 1014.44 414.051 1014.31 416.519 1013.03C418.971 1011.82 420.737 1009.02 421.817 1004.65L427.896 980.004L444.166 984.017L431.069 1037.11L414.799 1033.1L416.982 1024.25Z" fill="#F6F5F4"/>
<path d="M327.91 1003.75L388.832 940.742L405.667 947.203L383.983 968.692L385.825 1025.98L368.35 1019.27L368.802 982.81L344.836 1010.25L327.91 1003.75Z" fill="#F6F5F4"/>
<path d="M288.195 984.31L280.122 997.638L256.904 983.573L293.968 922.384L308.889 931.421L279.897 979.283L288.195 984.31Z" fill="#F6F5F4"/>
<path d="M258.341 943.554C251.435 952.42 244.295 958.079 236.918 960.532C229.49 962.945 221.962 961.181 214.334 955.239C206.705 949.297 203.178 942.45 203.75 934.698C204.271 926.905 207.984 918.576 214.889 909.711C221.875 900.742 229.082 895.051 236.509 892.638C243.886 890.185 251.388 891.93 259.017 897.871C266.645 903.813 270.199 910.68 269.678 918.473C269.105 926.225 265.326 934.586 258.341 943.554ZM227.878 919.828C223.824 925.034 221.279 929.47 220.245 933.136C219.171 936.854 220.412 940.099 223.969 942.869C227.525 945.639 230.975 946.048 234.317 944.096C237.619 942.196 241.297 938.643 245.352 933.437C248.082 929.932 250.144 926.859 251.538 924.219C252.892 921.63 253.513 919.132 253.4 916.725C253.195 914.33 251.856 912.169 249.382 910.242C246.907 908.315 244.51 907.565 242.189 907.993C239.776 908.433 237.481 909.626 235.302 911.573C233.083 913.571 230.608 916.323 227.878 919.828Z" fill="#F6F5F4"/>
<path d="M195.502 858.946L205.55 848.898L211.579 854.927C215.875 859.223 218.185 863.612 218.508 868.093C218.785 872.621 216.545 877.263 211.786 882.022L196.403 897.406L201.115 902.118L191.275 911.958L186.563 907.246L177.138 916.67L165.289 904.82L174.713 895.396L166.952 887.635L176.792 877.795L184.553 885.556L200.075 870.034C201.23 868.879 201.785 867.77 201.738 866.707C201.692 865.645 201.022 864.467 199.729 863.173L195.502 858.946Z" fill="#F6F5F4"/>
<path d="M132.013 846.877C128.159 841.929 126.718 836.676 127.688 831.117C128.607 825.598 131.927 820.611 137.648 816.154L162.853 796.523L173.09 809.667L149.663 827.913C146.777 830.161 145.117 832.655 144.683 835.394C144.25 838.134 145.017 840.766 146.984 843.292C148.951 845.817 151.316 847.205 154.078 847.455C156.84 847.706 159.664 846.707 162.55 844.458L185.977 826.212L196.274 839.433L139.061 883.995L128.764 870.774L148.634 855.298C145.683 855.443 142.737 854.798 139.797 853.361C136.856 851.925 134.262 849.764 132.013 846.877Z" fill="#F6F5F4"/>
<path d="M116.445 774.165C111.373 776.583 106.471 777.762 101.738 777.702C96.9767 777.584 92.7769 776.365 89.1384 774.046C85.4999 771.728 82.7107 768.534 80.7708 764.465C79.1121 760.985 78.3719 757.61 78.5503 754.341C78.7006 751.012 79.5884 748.092 81.2136 745.58L74.2251 748.912L67.0139 733.785L116.376 710.253L123.587 725.38L116.599 728.712C119.602 729.09 122.443 730.268 125.124 732.247C127.776 734.168 129.932 736.867 131.59 740.347C133.502 744.357 134.213 748.506 133.723 752.792C133.175 757.107 131.448 761.151 128.542 764.925C125.549 768.667 121.517 771.748 116.445 774.165ZM98.9061 737.146C95.1317 738.945 92.6596 741.427 91.4896 744.59C90.2915 747.694 90.4094 750.75 91.8432 753.758C93.277 756.766 95.591 758.811 98.7852 759.894C101.892 760.946 105.333 760.572 109.107 758.773C112.882 756.974 115.398 754.508 116.655 751.375C117.825 748.212 117.693 745.127 116.259 742.119C114.825 739.111 112.525 737.095 109.359 736.071C106.165 734.988 102.681 735.347 98.9061 737.146Z" fill="#F6F5F4"/>
<path d="M47.7086 678.019C45.8939 671.879 46.4545 666.399 49.3903 661.58C52.245 656.717 57.1497 653.257 64.1043 651.202L94.7422 642.147L99.4641 658.124L70.9878 666.54C67.4792 667.577 65.0222 669.291 63.6169 671.682C62.2117 674.073 61.9627 676.804 62.8701 679.874C63.7774 682.944 65.4707 685.1 67.95 686.343C70.4293 687.586 73.4233 687.689 76.9319 686.652L105.408 678.236L110.158 694.307L57.7164 709.806L52.9667 693.735L59.9213 691.68C57.1216 690.736 54.6566 689.08 52.526 686.712C50.3329 684.362 48.7271 681.465 47.7086 678.019Z" fill="#F6F5F4"/>
<path d="M32.1241 600.4C31.2878 594.052 32.6949 588.726 36.3454 584.423C39.9226 580.064 45.3062 577.411 52.496 576.464L84.1703 572.29L86.3465 588.808L56.9069 592.686C53.2796 593.164 50.5857 594.475 48.8252 596.618C47.0647 598.761 46.3935 601.419 46.8117 604.593C47.2299 607.767 48.5667 610.161 50.8222 611.775C53.0777 613.389 56.0191 613.957 59.6464 613.479L89.086 609.6L91.275 626.214L37.0595 633.357L34.8705 616.743L42.0604 615.796C39.4418 614.427 37.2647 612.408 35.529 609.737C33.7284 607.075 32.5935 603.962 32.1241 600.4Z" fill="#F6F5F4"/>
<path d="M23.4621 549.699C23.5189 552.638 22.7163 555.071 21.0546 556.998C19.3262 558.862 17.1882 559.818 14.6407 559.867C12.0279 559.917 9.85462 559.044 8.12097 557.248C6.32073 555.388 5.39225 552.988 5.33551 550.049C5.28003 547.174 6.11648 544.806 7.84485 542.943C9.50663 541.016 11.644 540.027 14.2568 539.976C16.8043 539.927 18.9782 540.833 20.7784 542.693C22.5121 544.489 23.4067 546.825 23.4621 549.699ZM28.9843 541.261L83.6581 540.205L83.9815 556.96L29.3077 558.015L28.9843 541.261Z" fill="#F6F5F4"/>
<path d="M69.7726 497.844L31.9723 482.577L33.5523 464.811L86.3024 488.983L84.4707 509.58L28.2828 524.063L29.8715 506.2L69.7726 497.844Z" fill="#F6F5F4"/>
<path d="M74.6813 400.879C76.2065 401.243 77.7725 401.718 79.3793 402.303L70.5764 439.193C73.9416 439.727 76.7338 439.285 78.953 437.867C81.1237 436.37 82.5351 434.255 83.1872 431.522C84.1577 427.455 83.1167 424.218 80.0641 421.81L84.204 404.461C87.4869 406.185 90.2459 408.556 92.481 411.575C94.7312 414.53 96.2337 417.944 96.9884 421.819C97.7431 425.693 97.6048 429.791 96.5736 434.112C95.3302 439.323 93.1111 443.697 89.9163 447.233C86.7216 450.77 82.7859 453.189 78.1093 454.491C73.4327 455.793 68.33 455.785 62.8013 454.465C57.2725 453.146 52.7081 450.881 49.1082 447.672C45.5234 444.398 43.1042 440.462 41.8505 435.865C40.5968 431.267 40.5992 426.33 41.8579 421.056C43.0862 415.908 45.2583 411.591 48.3743 408.103C51.4904 404.615 55.3155 402.236 59.8499 400.967C64.3994 399.635 69.3432 399.606 74.6813 400.879ZM66.4112 416.537C63.615 415.87 61.1633 416.293 59.0561 417.805C56.9489 419.317 55.5541 421.503 54.8717 424.363C54.2196 427.095 54.4605 429.604 55.5943 431.89C56.7433 434.112 58.7263 435.794 61.5434 436.937L66.4112 416.537Z" fill="#F6F5F4"/>
<path d="M70.1983 362.007C68.0731 359.116 66.7317 355.996 66.1741 352.647C65.5554 349.275 65.8772 345.906 67.1396 342.542L83.747 348.773L82.1289 353.086C80.6599 357.001 80.4146 360.258 81.3929 362.858C82.31 365.435 84.8789 367.516 89.0995 369.099L112.864 378.016L106.976 393.706L55.778 374.495L61.6652 358.805L70.1983 362.007Z" fill="#F6F5F4"/>
<path d="M134.352 331.502C132.173 335.744 129.506 339.149 126.352 341.715C123.197 344.281 119.878 345.881 116.394 346.516C112.852 347.12 109.452 346.732 106.194 345.353L113.762 330.621C115.536 331.312 117.305 331.229 119.068 330.372C120.83 329.514 122.234 328.068 123.279 326.034C124.234 324.175 124.617 322.572 124.427 321.226C124.208 319.791 123.518 318.776 122.356 318.179C120.961 317.462 119.571 317.666 118.185 318.791C116.742 319.886 114.777 321.851 112.292 324.688C109.687 327.757 107.352 330.23 105.286 332.106C103.162 333.953 100.709 335.227 97.9253 335.927C95.0837 336.598 92.0066 336.082 88.694 334.381C85.9045 332.948 83.7646 330.894 82.2742 328.218C80.7556 325.455 80.0892 322.248 80.275 318.598C80.4906 314.889 81.6582 310.972 83.7776 306.846C86.912 300.744 90.8857 296.726 95.6988 294.791C100.542 292.798 105.596 292.824 110.863 294.868L103.788 308.641C101.983 308.008 100.259 308.077 98.6141 308.848C96.9992 309.561 95.6694 310.934 94.6246 312.968C93.7291 314.712 93.3912 316.228 93.6109 317.516C93.7726 318.774 94.4345 319.702 95.5968 320.299C96.9916 321.015 98.4108 320.826 99.8545 319.731C101.328 318.578 103.219 316.612 105.529 313.832C108.309 310.707 110.747 308.249 112.841 306.461C114.877 304.642 117.345 303.412 120.244 302.772C123.116 302.043 126.252 302.516 129.652 304.189C132.5 305.652 134.639 307.779 136.07 310.57C137.472 313.274 138.036 316.465 137.763 320.143C137.519 323.764 136.382 327.55 134.352 331.502Z" fill="#F6F5F4"/>
<path d="M125.407 287.493C120.815 284.255 117.387 280.558 115.121 276.402C112.894 272.192 111.9 267.934 112.14 263.626C112.38 259.318 113.799 255.322 116.397 251.638C118.619 248.488 121.199 246.19 124.137 244.745C127.113 243.246 130.094 242.591 133.08 242.778L126.753 238.315L136.412 224.621L181.099 256.139L171.441 269.834L165.114 265.371C166.255 268.175 166.619 271.229 166.205 274.536C165.83 277.789 164.531 280.99 162.31 284.14C159.749 287.771 156.48 290.422 152.503 292.094C148.472 293.728 144.1 294.202 139.387 293.516C134.658 292.739 129.998 290.732 125.407 287.493ZM149.097 254.075C145.68 251.665 142.306 250.724 138.975 251.253C135.682 251.728 133.075 253.327 131.154 256.05C129.234 258.773 128.583 261.792 129.203 265.107C129.807 268.332 131.818 271.149 135.235 273.559C138.652 275.969 142.034 276.955 145.38 276.517C148.711 275.988 151.337 274.363 153.258 271.64C155.178 268.917 155.81 265.924 155.152 262.662C154.532 259.347 152.514 256.484 149.097 254.075Z" fill="#F6F5F4"/>
<path d="M171.364 198.556C170.485 195.078 170.418 191.682 171.164 188.369C171.862 185.013 173.43 182.014 175.867 179.374L188.901 191.405L185.777 194.79C182.941 197.862 181.486 200.787 181.412 203.564C181.29 206.296 182.885 209.192 186.198 212.249L204.848 229.466L193.482 241.779L153.3 204.688L164.667 192.374L171.364 198.556Z" fill="#F6F5F4"/>
<path d="M230.646 131.475L256.825 215.119L243.097 226.81L234.602 197.487L183.417 171.696L197.668 159.56L229.468 177.402L216.843 143.23L230.646 131.475Z" fill="#F6F5F4"/>
<path d="M292.692 90.3022L285.675 76.3895L309.913 64.1655L342.128 128.042L326.553 135.897L301.355 85.9334L292.692 90.3022Z" fill="#F6F5F4"/>
<path d="M345.891 85.1919C342.102 74.6127 341.147 65.5515 343.025 58.0083C344.965 50.4431 350.487 45.0302 359.59 41.7697C368.693 38.5092 376.364 39.1965 382.605 43.8317C388.907 48.4448 393.952 56.041 397.742 66.6202C401.575 77.3224 402.522 86.4561 400.582 94.0213C398.703 101.565 393.213 106.966 384.11 110.227C375.007 113.487 367.304 112.811 361.002 108.198C354.762 103.563 349.725 95.8941 345.891 85.1919ZM382.242 72.1719C380.017 65.9597 377.633 61.4352 375.09 58.5985C372.525 55.7003 369.121 55.0112 364.877 56.5313C360.633 58.0515 358.44 60.7453 358.299 64.6128C358.135 68.4189 359.166 73.428 361.391 79.6402C362.889 83.8227 364.38 87.2097 365.863 89.8013C367.325 92.3313 369.102 94.1931 371.195 95.3865C373.327 96.4965 375.87 96.5227 378.822 95.4652C381.775 94.4078 383.691 92.7843 384.573 90.5949C385.494 88.3219 385.715 85.7442 385.238 82.8616C384.739 79.9176 383.74 76.3543 382.242 72.1719Z" fill="#F6F5F4"/>
<path d="M448.662 77.7959L451.802 91.6546L443.486 93.5387C437.561 94.8813 432.616 94.4944 428.653 92.3778C424.676 90.1975 421.944 85.8259 420.456 79.2629L415.649 58.0447L409.15 59.5174L406.074 45.9454L412.574 44.4728L409.628 31.4743L425.972 27.7711L428.917 40.7696L439.622 38.3441L442.697 51.9161L431.993 54.3416L436.844 75.7509C437.204 77.3438 437.847 78.4041 438.77 78.9318C439.694 79.4594 441.047 79.5211 442.831 79.1169L448.662 77.7959Z" fill="#F6F5F4"/>
<path d="M494.078 30.2274C500.321 29.6237 505.53 31.2205 509.704 35.0177C513.872 38.7498 516.305 44.2251 517.003 51.4434L520.078 83.2431L503.495 84.8466L500.637 55.2905C500.285 51.6488 499.068 48.9112 496.988 47.0776C494.907 45.244 492.273 44.4813 489.087 44.7894C485.9 45.0975 483.462 46.3507 481.771 48.549C480.08 50.7473 479.41 53.6673 479.762 57.309L482.62 86.8651L465.94 88.4781L458.96 16.2948L475.64 14.6818L478.065 39.7509C479.523 37.1813 481.646 35.0397 484.434 33.326C487.222 31.6124 490.437 30.5795 494.078 30.2274Z" fill="#F6F5F4"/>
<path d="M566.947 55.918C567.638 50.342 569.282 45.5754 571.88 41.6181C574.542 37.6689 577.829 34.7846 581.741 32.9654C585.653 31.1461 589.846 30.5137 594.32 31.0682C598.145 31.5424 601.388 32.7343 604.048 34.644C606.772 36.5617 608.756 38.8813 609.999 41.6028L610.951 33.9196L627.582 35.9809L620.856 90.2497L604.225 88.1884L605.177 80.5052C603.243 82.8329 600.72 84.594 597.61 85.7885C594.564 86.991 591.129 87.3551 587.303 86.881C582.894 86.3345 579.015 84.7016 575.665 81.9823C572.324 79.1981 569.844 75.5662 568.227 71.0866C566.683 66.5502 566.256 61.494 566.947 55.918ZM607.588 61.054C608.102 56.9044 607.341 53.4855 605.304 50.7972C603.332 48.117 600.693 46.5719 597.386 46.1621C594.08 45.7522 591.111 46.6021 588.479 48.7118C585.92 50.7647 584.384 53.8659 583.87 58.0155C583.355 62.165 584.08 65.6124 586.044 68.3575C588.081 71.0457 590.753 72.5948 594.059 73.0047C597.366 73.4145 600.303 72.5606 602.869 70.4429C605.501 68.3332 607.074 65.2036 607.588 61.054Z" fill="#F6F5F4"/>
<path d="M684.938 49.5743C691.092 51.3425 695.412 54.7591 697.899 59.8243C700.467 64.8448 700.75 70.84 698.747 77.81L689.925 108.516L673.912 103.915L682.113 75.3755C683.123 71.8591 682.998 68.866 681.736 66.3962C680.474 63.9264 678.305 62.2494 675.228 61.3653C672.151 60.4813 669.423 60.7509 667.042 62.1742C664.662 63.5975 662.967 66.0674 661.956 69.5838L653.756 98.123L637.65 93.4951L652.751 40.9377L668.858 45.5656L666.855 52.5356C669.155 50.6814 671.876 49.4919 675.018 48.9671C678.178 48.3796 681.484 48.5819 684.938 49.5743Z" fill="#F6F5F4"/>
<path d="M757.096 77.2785C762.906 79.9691 766.651 84.0077 768.333 89.3943C770.101 94.749 769.461 100.717 766.414 107.297L752.989 136.288L737.871 129.287L750.349 102.342C751.887 99.0218 752.221 96.0448 751.353 93.4108C750.485 90.7768 748.598 88.7871 745.693 87.4419C742.788 86.0966 740.051 85.9448 737.48 86.9864C734.91 88.0281 732.856 90.2089 731.319 93.5289L718.841 120.474L703.634 113.432L726.614 63.8103L741.82 70.8524L738.773 77.433C741.33 75.9533 744.201 75.1949 747.386 75.1579C750.599 75.0617 753.835 75.7685 757.096 77.2785Z" fill="#F6F5F4"/>
<path d="M806.103 97.9438C803.594 96.4113 801.973 94.4265 801.242 91.9893C800.6 89.5303 800.943 87.2136 802.272 85.0391C803.634 82.8089 805.538 81.4457 807.985 80.9495C810.521 80.4317 813.044 80.939 815.553 82.4714C818.006 83.9698 819.554 85.9484 820.195 88.4074C820.927 90.8446 820.612 93.1783 819.249 95.4086C817.921 97.5831 815.989 98.9293 813.453 99.4471C811.006 99.9433 808.556 99.4421 806.103 97.9438ZM810.249 107.136L781.746 153.805L767.444 145.07L795.948 98.4016L810.249 107.136Z" fill="#F6F5F4"/>
<path d="M823.439 163.765L856.589 140.038L870.74 150.895L822.058 182.469L805.652 169.882L823.544 114.685L837.773 125.602L823.439 163.765Z" fill="#F6F5F4"/>
<path d="M901.66 218.586C900.539 219.682 899.303 220.755 897.952 221.803L871.428 194.694C869.183 197.257 868.069 199.855 868.086 202.489C868.196 205.123 869.233 207.445 871.198 209.453C874.122 212.441 877.417 213.286 881.081 211.986L893.554 224.735C890.346 226.594 886.869 227.665 883.124 227.947C879.425 228.277 875.734 227.728 872.054 226.302C868.373 224.876 864.98 222.575 861.873 219.4C858.126 215.57 855.608 211.362 854.318 206.774C853.028 202.186 853.079 197.566 854.469 192.915C855.86 188.264 858.586 183.951 862.649 179.976C866.712 176.001 871.06 173.346 875.695 172.01C880.375 170.721 884.995 170.772 889.553 172.161C894.112 173.551 898.288 176.183 902.08 180.059C905.781 183.842 908.277 187.981 909.568 192.476C910.859 196.972 910.833 201.476 909.49 205.989C908.193 210.549 905.583 214.748 901.66 218.586ZM892.818 203.243C894.873 201.233 895.822 198.933 895.666 196.344C895.509 193.755 894.403 191.41 892.346 189.309C890.382 187.301 888.13 186.167 885.592 185.909C883.1 185.697 880.619 186.478 878.151 188.253L892.818 203.243Z" fill="#F6F5F4"/>
<path d="M937.585 236.113C941.164 235.852 944.519 236.376 947.652 237.686C950.837 238.957 953.517 241.021 955.694 243.88L941.582 254.626L938.791 250.961C936.258 247.635 933.631 245.694 930.909 245.139C928.239 244.544 925.11 245.612 921.524 248.343L901.33 263.72L891.178 250.387L934.684 217.259L944.837 230.592L937.585 236.113Z" fill="#F6F5F4"/>
<path d="M928.923 305.979C926.482 301.882 925.011 297.815 924.508 293.78C924.005 289.745 924.409 286.082 925.719 282.792C927.085 279.469 929.217 276.792 932.114 274.762L940.59 288.99C939.063 290.128 938.195 291.672 937.988 293.621C937.78 295.57 938.261 297.527 939.431 299.491C940.501 301.287 941.657 302.462 942.899 303.015C944.231 303.59 945.458 303.544 946.58 302.875C947.927 302.072 948.492 300.786 948.273 299.015C948.111 297.21 947.486 294.502 946.4 290.891C945.179 287.055 944.321 283.764 943.826 281.017C943.386 278.237 943.608 275.481 944.49 272.75C945.429 269.986 947.498 267.651 950.698 265.745C953.392 264.14 956.268 263.415 959.326 263.57C962.474 263.748 965.546 264.884 968.543 266.977C971.572 269.127 974.274 272.194 976.648 276.18C980.159 282.073 981.458 287.573 980.546 292.679C979.667 297.842 976.964 302.114 972.438 305.494L964.513 292.192C966.007 290.998 966.864 289.499 967.082 287.696C967.334 285.949 966.875 284.093 965.705 282.128C964.702 280.444 963.596 279.354 962.387 278.857C961.235 278.327 960.097 278.396 958.975 279.065C957.628 279.868 957.035 281.171 957.198 282.975C957.394 284.836 958.058 287.482 959.19 290.915C960.365 294.93 961.155 298.299 961.561 301.023C962.023 303.714 961.757 306.458 960.762 309.256C959.857 312.077 957.793 314.485 954.571 316.48C951.821 318.119 948.883 318.804 945.758 318.536C942.722 318.292 939.717 317.078 936.744 314.895C933.804 312.768 931.197 309.796 928.923 305.979Z" fill="#F6F5F4"/>
<path d="M972.405 324.639C977.596 322.489 982.553 321.568 987.276 321.874C992.025 322.241 996.156 323.677 999.668 326.182C1003.18 328.687 1005.8 332.023 1007.52 336.187C1009 339.749 1009.56 343.157 1009.21 346.413C1008.89 349.729 1007.85 352.599 1006.1 355.023L1013.25 352.06L1019.66 367.543L969.141 388.468L962.728 372.986L969.881 370.023C966.902 369.489 964.126 368.164 961.552 366.048C959.003 363.992 956.992 361.184 955.517 357.622C953.817 353.518 953.323 349.338 954.035 345.083C954.808 340.802 956.744 336.854 959.843 333.237C963.026 329.655 967.214 326.789 972.405 324.639ZM987.989 362.523C991.853 360.923 994.451 358.574 995.784 355.476C997.142 352.438 997.184 349.38 995.909 346.302C994.634 343.224 992.43 341.06 989.296 339.812C986.248 338.6 982.793 338.794 978.93 340.394C975.067 341.994 972.426 344.325 971.007 347.388C969.674 350.486 969.645 353.574 970.92 356.652C972.195 359.731 974.386 361.864 977.495 363.051C980.628 364.299 984.126 364.123 987.989 362.523Z" fill="#F6F5F4"/>
<path d="M1022.05 407.95C1025.46 409.056 1028.37 410.806 1030.78 413.199C1033.25 415.575 1034.96 418.497 1035.9 421.966L1018.78 426.605L1017.57 422.16C1016.48 418.124 1014.78 415.336 1012.46 413.797C1010.21 412.24 1006.91 412.052 1002.56 413.231L978.065 419.87L973.681 403.695L1026.46 389.392L1030.84 405.567L1022.05 407.95Z" fill="#F6F5F4"/>
<path d="M1047.43 495.075L962.722 472.578L960.161 454.729L989.492 463.193L1038.62 433.67L1041.28 452.198L1009.22 469.57L1044.86 477.129L1047.43 495.075Z" fill="#F6F5F4"/>
</svg>
