<svg width="220" height="36" viewBox="0 0 220 36" fill="none" xmlns="http://www.w3.org/2000/svg">
<path d="M208.993 27.1247C206.613 27.1247 204.735 26.5737 203.358 25.4717V22.0155C204.159 22.9922 204.923 23.6935 205.649 24.1192C206.401 24.52 207.252 24.7203 208.204 24.7203C209.256 24.7203 210.132 24.4573 210.834 23.9314C211.535 23.3804 212.061 22.5664 212.411 21.4895C212.762 20.4126 212.937 19.0601 212.937 17.4322C212.937 15.5789 212.537 14.1137 211.735 13.0368C210.959 11.9599 209.907 11.4214 208.579 11.4214C207.928 11.4214 207.327 11.5216 206.776 11.7219C206.225 11.8972 205.737 12.1727 205.311 12.5484V10.4071H205.687C206.413 9.40525 207.352 8.61633 208.504 8.0403C209.656 7.43921 210.846 7.13867 212.073 7.13867C213.626 7.13867 214.991 7.52687 216.168 8.30327C217.37 9.05462 218.309 10.094 218.986 11.4214C219.662 12.7488 220 14.289 220 16.0422C220 18.1961 219.524 20.112 218.572 21.79C217.646 23.4681 216.356 24.7829 214.703 25.7346C213.05 26.6613 211.147 27.1247 208.993 27.1247ZM196.896 35.352V34.6757L199.714 31.4449L199.112 32.4968V12.6611L200.728 15.5914L196.52 10.8203V9.91868L204.522 7.36408H205.762L205.499 10.4071H205.875V32.572L205.311 31.6703L208.918 34.6757V35.352H196.896Z" fill="white"/>
<path d="M188.866 27.0109L187.213 24.2309H186.724V14.1252C186.724 12.7728 186.386 11.7084 185.71 10.932C185.059 10.1305 184.157 9.7298 183.005 9.7298C182.329 9.7298 181.69 9.90512 181.089 10.2557C180.513 10.6064 180.05 11.0948 179.699 11.7209V7.96412H183.569L178.46 14.6136H177.37L175.078 8.90331C175.68 8.55268 176.481 8.23962 177.483 7.96412C178.51 7.68863 179.612 7.47574 180.789 7.32547C181.991 7.15016 183.155 7.0625 184.283 7.0625C187.238 7.0625 189.504 7.67611 191.082 8.90331C192.685 10.1055 193.487 11.8461 193.487 14.1252V22.5779L191.871 19.6477L195.703 23.6298V24.5315L189.88 27.0109H188.866ZM180.488 27.1236C178.835 27.1236 177.483 26.6478 176.431 25.696C175.379 24.7193 174.853 23.467 174.853 21.9393C174.853 18.6834 177.646 16.517 183.231 15.4401L187.476 14.6136V16.7549L185.071 17.356C183.994 17.6065 183.193 17.9947 182.667 18.5206C182.166 19.0215 181.916 19.6727 181.916 20.4741C181.916 21.3257 182.129 21.9894 182.554 22.4652C183.005 22.916 183.619 23.1414 184.395 23.1414C185.522 23.1414 186.486 22.8534 187.288 22.2774V24.2309H186.912C186.211 25.1576 185.297 25.8714 184.17 26.3723C183.068 26.8732 181.841 27.1236 180.488 27.1236Z" fill="white"/>
<path d="M162.102 26.5225V25.8463L164.582 22.5779L164.018 23.6674V15.1395C164.018 13.8873 163.768 12.9731 163.267 12.3971C162.766 11.8211 161.965 11.533 160.863 11.533C160.086 11.533 159.373 11.6458 158.721 11.8712C158.095 12.0966 157.532 12.4221 157.031 12.8479V10.7441H157.406C159.635 8.28971 162.09 7.0625 164.77 7.0625C166.623 7.0625 168.088 7.65106 169.165 8.82818C170.242 9.98025 170.781 11.5581 170.781 13.5617V23.6674L170.179 22.6155L172.997 25.8463V26.5225H162.102ZM148.616 26.5225V25.8463L151.433 22.6155L150.832 23.6674V11.3828L152.448 15.5904L148.24 10.8193V9.91764L156.242 7.36304H157.482L157.219 10.7441H157.594V23.6674L157.031 22.5779L159.51 25.8463V26.5225H148.616Z" fill="white"/>
<path d="M135.572 27.1238C134.37 27.1238 133.192 27.0111 132.04 26.7857C130.913 26.5854 129.799 26.2848 128.697 25.8841C127.595 25.4583 126.518 24.9449 125.466 24.3438L128.133 18.6335H129.148L135.046 25.5084H130.087V21.8268C130.463 22.5531 131.214 23.1542 132.341 23.63C133.493 24.1059 134.758 24.3438 136.135 24.3438C137.538 24.3438 138.602 24.0433 139.329 23.4422C140.08 22.8411 140.456 21.9771 140.456 20.85C140.456 19.8983 139.98 19.0969 139.028 18.4457C138.101 17.7695 136.448 17.0432 134.069 16.2668C132.09 15.6156 130.525 14.9394 129.373 14.2381C128.221 13.5118 127.395 12.6728 126.894 11.7211C126.418 10.7443 126.18 9.57975 126.18 8.22731C126.18 5.69776 127.094 3.69415 128.922 2.21649C130.776 0.73883 133.293 0 136.473 0C137.525 0 138.602 0.112703 139.704 0.338109C140.806 0.53847 141.908 0.851534 143.01 1.2773C144.112 1.67802 145.177 2.17892 146.203 2.78001L143.273 8.18974H142.259L136.398 1.61541H141.583V5.29704C141.182 4.52064 140.493 3.89451 139.516 3.41866C138.54 2.91775 137.463 2.6673 136.286 2.6673C135.184 2.6673 134.282 2.93027 133.581 3.45622C132.879 3.98217 132.529 4.65839 132.529 5.48488C132.529 6.41154 132.992 7.21299 133.919 7.8892C134.87 8.56542 136.536 9.29173 138.915 10.0681C140.894 10.6943 142.459 11.3705 143.611 12.0968C144.763 12.8231 145.577 13.6621 146.053 14.6138C146.554 15.5655 146.804 16.7301 146.804 18.1076C146.804 19.9359 146.341 21.5263 145.414 22.8787C144.513 24.2311 143.223 25.283 141.545 26.0344C139.867 26.7607 137.876 27.1238 135.572 27.1238Z" fill="white"/>
<path d="M114.622 27.1247C112.668 27.1247 110.94 26.7365 109.437 25.9601C107.96 25.1586 106.795 24.0566 105.943 22.6541C105.092 21.2516 104.666 19.6487 104.666 17.8454C104.666 15.7417 105.117 13.8883 106.019 12.2854C106.945 10.6826 108.21 9.4303 109.813 8.52867C111.441 7.60201 113.307 7.13867 115.41 7.13867C117.089 7.13867 118.554 7.55192 119.806 8.37841C121.083 9.17985 122.085 10.3319 122.811 11.8346C123.538 13.3373 123.901 15.1281 123.901 17.2068H109.55V15.8919L117.139 14.3141C117.139 12.8114 116.901 11.6969 116.425 10.9706C115.974 10.2192 115.385 9.84354 114.659 9.84354C114.058 9.84354 113.532 10.1065 113.081 10.6325C112.63 11.1584 112.28 11.9223 112.029 12.9241C111.804 13.9008 111.691 15.0654 111.691 16.4179C111.691 18.3964 112.18 19.9743 113.156 21.1514C114.133 22.3285 115.448 22.9171 117.101 22.9171C119.13 22.9171 120.783 22.2659 122.06 20.9636L123.337 21.8652C122.636 23.4681 121.509 24.7454 119.956 25.6971C118.403 26.6488 116.625 27.1247 114.622 27.1247Z" fill="white"/>
<path d="M92.5835 26.5225V25.8463L94.6122 22.5779L94.0487 23.6674V15.1395C94.0487 13.8873 93.8107 12.9731 93.3349 12.3971C92.859 11.8211 92.1077 11.533 91.0808 11.533C90.4547 11.533 89.8286 11.6458 89.2025 11.8712C88.6014 12.0966 88.0504 12.4221 87.5495 12.8479V10.7441H87.9252C88.9019 9.56701 89.9914 8.66539 91.1935 8.03926C92.4207 7.38809 93.6855 7.0625 94.9879 7.0625C96.8412 7.0625 98.2688 7.62602 99.2706 8.75304C100.297 9.88007 100.811 11.483 100.811 13.5617V23.6674L100.21 22.6155L103.027 25.8463V26.5225H92.5835ZM66.4365 26.5225V25.8463L69.254 22.6155L68.653 23.6674V12.6601L70.2684 15.5904L66.0608 10.8193V9.91764L74.0627 7.36304H75.3024L75.0395 10.7441H75.4151V23.6674L74.8141 22.6155L77.1808 25.8463V26.5225H66.4365ZM79.8857 26.5225V25.8463L81.9143 22.5779L81.3508 23.6674V15.1395C81.3508 13.8873 81.1129 12.9731 80.637 12.3971C80.1612 11.8211 79.4098 11.533 78.383 11.533C77.0556 11.533 75.8785 11.9713 74.8516 12.8479V10.7441H75.2273C76.204 9.56701 77.2935 8.66539 78.4957 8.03926C79.7229 7.38809 80.9877 7.0625 82.29 7.0625C84.1433 7.0625 85.5709 7.62602 86.5727 8.75304C87.5996 9.88007 88.113 11.483 88.113 13.5617V23.6674L87.5119 22.6155L89.8787 25.8463V26.5225H79.8857ZM86.1219 15.2147V11.9839H88.113V15.2147H86.1219Z" fill="white"/>
<path d="M17.0557 26.5232V25.6216L19.3473 23.0294V4.09535L17.0557 1.50319V0.601562H29.3028V1.50319L26.7106 4.09535V23.0294L29.3028 25.6216V26.5232H17.0557ZM0 26.5232V25.6216L2.59217 23.0294V4.09535L0 1.50319V0.601562H12.247V1.50319L9.95542 4.09535V23.0294L12.247 25.6216V26.5232H0ZM6.91244 14.464V12.0221H22.6157V14.464H6.91244Z" fill="white"/>
<path fill-rule="evenodd" clip-rule="evenodd" d="M60.6505 4.8293C61.5659 4.8293 62.4041 5.20844 62.999 5.81082C63.5979 6.41032 63.9684 7.25088 63.9685 8.16511V23.6195C63.9685 24.5343 63.598 25.3731 62.9991 25.9737C62.4041 26.5761 61.5659 26.9552 60.6506 26.9541H48.9847H34.6878C33.773 26.9552 32.933 26.5762 32.337 25.9737C31.7409 25.3731 31.3699 24.5343 31.3699 23.6195V8.16511C31.3699 7.25088 31.7409 6.41147 32.337 5.81082C32.9331 5.20838 33.773 4.8293 34.6878 4.8293H38.2789C38.5678 4.83044 38.8382 4.65726 38.9625 4.37769L40.0372 1.96935C40.5706 0.776126 41.754 0 43.0663 0H52.272C53.5849 0 54.7677 0.776126 55.2999 1.96935L56.3758 4.37769C56.5 4.65726 56.7699 4.83044 57.0593 4.8293H60.6505ZM58.504 10.8375H60.7829V8.55801H58.504V10.8375ZM43.1971 22.5588C44.4385 23.1424 45.9057 23.4342 47.5985 23.4342C49.2538 23.4342 50.7116 23.1048 51.9718 22.4459C53.2321 21.787 54.2196 20.874 54.9344 19.7069C55.6491 18.5209 56.0065 17.1749 56.0065 15.6689C56.0065 14.1817 55.6679 12.9016 54.9908 11.8286C54.3324 10.7367 53.3826 9.89899 52.1411 9.31541C50.8997 8.71301 49.4325 8.41181 47.7396 8.41181C46.1032 8.41181 44.6454 8.74125 43.3663 9.40013C42.1061 10.059 41.1186 10.972 40.4038 12.1392C39.689 13.3063 39.3316 14.6523 39.3316 16.1771C39.3316 17.6643 39.6702 18.9538 40.3474 20.0457C41.0245 21.1187 41.9744 21.9564 43.1971 22.5588ZM49.4325 20.9211C49.0563 21.2787 48.5955 21.4576 48.05 21.4576C47.2976 21.4576 46.6675 21.2129 46.1596 20.7234C45.6705 20.234 45.2943 19.4998 45.031 18.5209C44.7865 17.5231 44.6642 16.2807 44.6642 14.7935C44.6642 13.8899 44.7677 13.1087 44.9746 12.4498C45.2003 11.7909 45.5107 11.2826 45.9057 10.925C46.3007 10.5673 46.7615 10.3884 47.2882 10.3884C48.0406 10.3884 48.6613 10.6332 49.1504 11.1226C49.6582 11.6121 50.0344 12.3557 50.2789 13.3534C50.5423 14.3323 50.6739 15.5653 50.6739 17.0525C50.6739 17.9561 50.5611 18.7374 50.3354 19.3962C50.1285 20.0551 49.8275 20.5634 49.4325 20.9211Z" fill="white"/>
</svg>
