<svg width="281" height="281" viewBox="0 0 281 281" fill="none" xmlns="http://www.w3.org/2000/svg">
<path d="M271.844 140.374L276.689 140.58L276.331 149.021L254.086 148.076L254.316 142.652L271.716 143.391L271.844 140.374Z" fill="white"/>
<path d="M265.527 152.207C268.976 152.784 271.583 153.899 273.347 155.555C275.109 157.23 275.741 159.552 275.245 162.52C274.749 165.488 273.398 167.468 271.192 168.46C268.982 169.472 266.152 169.69 262.702 169.114C259.213 168.531 256.587 167.402 254.826 165.727C253.062 164.071 252.428 161.76 252.924 158.791C253.419 155.823 254.772 153.833 256.982 152.821C259.189 151.829 262.037 151.624 265.527 152.207ZM263.547 164.06C265.572 164.398 267.163 164.438 268.32 164.177C269.497 163.92 270.201 163.1 270.432 161.716C270.663 160.332 270.264 159.328 269.235 158.702C268.225 158.08 266.708 157.6 264.682 157.261C263.319 157.034 262.172 156.924 261.243 156.934C260.334 156.947 259.558 157.147 258.916 157.535C258.291 157.946 257.898 158.633 257.737 159.595C257.576 160.558 257.726 161.325 258.187 161.897C258.665 162.492 259.332 162.944 260.187 163.252C261.063 163.563 262.183 163.832 263.547 164.06Z" fill="white"/>
<path d="M252.497 178.645L248.26 177.376L249.022 174.834C249.565 173.022 250.426 171.742 251.606 170.991C252.806 170.247 254.408 170.176 256.415 170.777L262.901 172.72L263.496 170.734L267.645 171.977L267.049 173.964L271.023 175.154L269.526 180.15L265.552 178.96L264.572 182.232L260.423 180.989L261.404 177.716L254.859 175.755C254.372 175.609 253.987 175.621 253.702 175.791C253.418 175.96 253.194 176.318 253.031 176.863L252.497 178.645Z" fill="white"/>
<path d="M259.614 195.042C258.82 196.825 257.589 197.991 255.92 198.539C254.271 199.096 252.415 198.915 250.353 197.997L241.269 193.954L243.378 189.217L251.82 192.975C252.861 193.438 253.789 193.529 254.604 193.246C255.42 192.964 256.03 192.368 256.435 191.457C256.841 190.547 256.875 189.694 256.539 188.899C256.203 188.104 255.515 187.475 254.475 187.012L246.032 183.254L248.153 178.489L268.772 187.668L266.651 192.432L259.49 189.245C259.963 190.034 260.217 190.937 260.254 191.955C260.29 192.973 260.077 194.002 259.614 195.042Z" fill="white"/>
<path d="M244.499 205.674C245.898 206.723 246.931 207.905 247.598 209.218C248.253 210.548 248.523 211.882 248.409 213.22C248.295 214.558 247.817 215.788 246.976 216.91C246.256 217.87 245.432 218.561 244.505 218.984C243.566 219.423 242.633 219.6 241.705 219.515L243.633 220.961L240.504 225.133L226.888 214.922L230.018 210.749L231.945 212.195C231.616 211.313 231.53 210.359 231.689 209.334C231.835 208.326 232.269 207.341 232.988 206.382C233.818 205.276 234.859 204.481 236.112 203.997C237.38 203.525 238.745 203.417 240.205 203.673C241.669 203.958 243.1 204.625 244.499 205.674ZM236.825 215.855C237.866 216.636 238.907 216.959 239.949 216.825C240.977 216.707 241.803 216.233 242.425 215.404C243.047 214.574 243.277 213.641 243.114 212.604C242.956 211.595 242.356 210.7 241.315 209.92C240.274 209.139 239.231 208.801 238.186 208.907C237.144 209.041 236.313 209.523 235.691 210.353C235.068 211.182 234.845 212.108 235.02 213.128C235.182 214.165 235.784 215.074 236.825 215.855Z" fill="white"/>
<path d="M230.905 235.261C229.481 236.654 227.893 237.299 226.139 237.193C224.386 237.117 222.72 236.272 221.142 234.658L214.188 227.551L217.894 223.925L224.357 230.531C225.154 231.345 225.983 231.771 226.845 231.809C227.708 231.847 228.495 231.518 229.207 230.821C229.919 230.124 230.265 229.344 230.246 228.481C230.227 227.618 229.819 226.78 229.023 225.966L222.559 219.361L226.287 215.713L238.19 227.878L234.462 231.525L232.883 229.912C233.032 230.819 232.935 231.739 232.594 232.67C232.268 233.615 231.705 234.479 230.905 235.261Z" fill="white"/>
<path d="M214.895 248.314C213.27 249.469 211.601 249.857 209.886 249.48C208.166 249.131 206.652 248.036 205.344 246.197L199.584 238.092L203.81 235.088L209.164 242.621C209.824 243.549 210.576 244.099 211.422 244.271C212.268 244.443 213.097 244.241 213.909 243.664C214.721 243.086 215.185 242.37 215.3 241.515C215.416 240.659 215.144 239.768 214.484 238.839L209.13 231.307L213.381 228.285L223.241 242.157L218.99 245.179L217.682 243.339C217.687 244.259 217.449 245.152 216.967 246.018C216.497 246.901 215.806 247.666 214.895 248.314Z" fill="white"/>
<path d="M204.347 256.704C205.15 256.265 205.937 256.136 206.708 256.317C207.471 256.526 208.042 256.978 208.423 257.674C208.813 258.387 208.885 259.112 208.639 259.849C208.385 260.614 207.857 261.216 207.054 261.655C206.269 262.084 205.495 262.194 204.732 261.986C203.961 261.805 203.381 261.358 202.99 260.644C202.61 259.948 202.547 259.218 202.801 258.454C203.046 257.717 203.562 257.133 204.347 256.704ZM201.224 256.396L193.058 241.464L197.634 238.961L205.8 253.894L201.224 256.396Z" fill="white"/>
<path d="M186.157 250.069L187.44 262.692L182.319 264.835L181.319 246.804L187.255 244.319L199.397 257.687L194.249 259.842L186.157 250.069Z" fill="white"/>
<path d="M162.959 261.318C162.838 260.845 162.742 260.345 162.671 259.817L174.109 256.903C173.769 255.899 173.243 255.193 172.531 254.787C171.805 254.406 171.018 254.323 170.171 254.539C168.91 254.86 168.168 255.615 167.947 256.805L162.567 258.175C162.567 257.021 162.821 255.918 163.329 254.865C163.818 253.818 164.541 252.909 165.499 252.141C166.458 251.372 167.607 250.817 168.947 250.476C170.562 250.064 172.089 250.042 173.525 250.411C174.962 250.779 176.198 251.513 177.234 252.614C178.269 253.714 179.006 255.121 179.442 256.835C179.879 258.549 179.916 260.135 179.552 261.591C179.169 263.052 178.435 264.289 177.35 265.3C176.264 266.31 174.904 267.024 173.269 267.441C171.673 267.847 170.169 267.874 168.757 267.52C167.345 267.167 166.136 266.457 165.13 265.391C164.104 264.331 163.38 262.973 162.959 261.318ZM168.47 261.33C168.691 262.197 169.162 262.811 169.884 263.173C170.605 263.535 171.409 263.603 172.296 263.377C173.143 263.161 173.8 262.731 174.266 262.088C174.711 261.45 174.888 260.66 174.795 259.719L168.47 261.33Z" fill="white"/>
<path d="M156.6 267.505C156.113 268.51 155.45 269.333 154.609 269.974C153.771 270.634 152.798 271.035 151.688 271.177L150.988 265.701L152.41 265.52C153.701 265.355 154.633 264.948 155.206 264.301C155.782 263.674 155.981 262.665 155.803 261.273L154.801 253.437L159.975 252.776L162.133 269.657L156.959 270.319L156.6 267.505Z" fill="white"/>
<path d="M142.032 254.09C143.516 254.067 144.842 254.3 146.009 254.791C147.175 255.281 148.101 255.958 148.785 256.822C149.47 257.706 149.862 258.697 149.96 259.793L144.806 259.873C144.736 259.284 144.454 258.811 143.96 258.452C143.467 258.094 142.864 257.92 142.153 257.931C141.502 257.941 141.006 258.071 140.664 258.32C140.302 258.59 140.124 258.928 140.131 259.335C140.138 259.823 140.398 260.175 140.909 260.391C141.422 260.627 142.249 260.878 143.392 261.145C144.616 261.411 145.637 261.69 146.455 261.983C147.273 262.295 147.983 262.783 148.583 263.445C149.183 264.127 149.492 265.047 149.51 266.206C149.525 267.182 149.274 268.07 148.758 268.871C148.221 269.693 147.438 270.346 146.409 270.829C145.359 271.313 144.112 271.567 142.669 271.589C140.534 271.622 138.848 271.119 137.612 270.081C136.356 269.043 135.622 267.651 135.412 265.905L140.231 265.831C140.321 266.419 140.593 266.883 141.045 267.221C141.478 267.56 142.05 267.724 142.761 267.713C143.371 267.704 143.837 267.575 144.158 267.326C144.48 267.097 144.638 266.78 144.632 266.373C144.624 265.885 144.364 265.523 143.852 265.287C143.32 265.051 142.503 264.82 141.401 264.593C140.136 264.287 139.104 263.977 138.306 263.664C137.509 263.372 136.81 262.874 136.209 262.171C135.588 261.49 135.259 260.559 135.22 259.38C135.205 258.384 135.476 257.485 136.033 256.683C136.57 255.902 137.363 255.28 138.414 254.817C139.444 254.353 140.65 254.111 142.032 254.09Z" fill="white"/>
<path d="M134.093 263.142C133.865 264.876 133.342 266.356 132.524 267.581C131.686 268.804 130.656 269.694 129.434 270.25C128.212 270.807 126.906 270.994 125.515 270.811C124.326 270.654 123.319 270.275 122.496 269.675C121.653 269.071 121.041 268.345 120.661 267.495L120.346 269.884L115.175 269.202L117.398 252.329L122.569 253.01L122.254 255.399C122.862 254.679 123.651 254.137 124.622 253.773C125.573 253.406 126.643 253.301 127.832 253.458C129.203 253.638 130.406 254.156 131.442 255.01C132.476 255.885 133.239 257.021 133.731 258.419C134.201 259.834 134.322 261.409 134.093 263.142ZM121.457 261.447C121.287 262.737 121.516 263.803 122.144 264.644C122.751 265.483 123.569 265.97 124.597 266.106C125.625 266.241 126.551 265.984 127.375 265.334C128.176 264.701 128.662 263.739 128.832 262.449C129.002 261.159 128.784 260.084 128.18 259.225C127.552 258.384 126.724 257.896 125.696 257.76C124.668 257.625 123.752 257.883 122.948 258.536C122.124 259.187 121.627 260.157 121.457 261.447Z" fill="white"/>
<path d="M107.028 264.17C106.201 264.92 105.277 265.434 104.258 265.713C103.233 266.011 102.18 266.018 101.099 265.734L102.502 260.395L103.888 260.759C105.147 261.09 106.163 261.063 106.937 260.677C107.706 260.312 108.269 259.451 108.626 258.094L110.634 250.454L115.678 251.78L111.351 268.24L106.307 266.914L107.028 264.17Z" fill="white"/>
<path d="M82.7443 258.463L101.997 239.14L107.205 241.229L100.357 247.815L100.663 265.65L95.2564 263.482L95.5673 252.138L87.9813 260.564L82.7443 258.463Z" fill="white"/>
<path d="M74.7803 254.41L72.1921 258.511L65.0475 254.002L76.9307 235.174L81.5218 238.071L72.2268 252.799L74.7803 254.41Z" fill="white"/>
<path d="M67.9385 243.187C65.7296 245.899 63.4693 247.611 61.1574 248.324C58.8298 249.025 56.4994 248.424 54.1663 246.524C51.8331 244.623 50.782 242.469 51.0129 240.06C51.228 237.639 52.44 235.073 54.6489 232.361C56.8834 229.618 59.1645 227.897 61.4921 227.197C63.8039 226.483 66.1264 227.077 68.4596 228.978C70.7928 230.878 71.8518 233.039 71.6366 235.46C71.4057 237.869 70.173 240.444 67.9385 243.187ZM58.6216 235.598C57.3245 237.19 56.5027 238.553 56.156 239.687C55.7965 240.836 56.1606 241.854 57.2484 242.74C58.3362 243.626 59.4066 243.777 60.4597 243.193C61.5 242.624 62.6687 241.543 63.9658 239.951C64.839 238.879 65.5016 237.937 65.9533 237.125C66.3923 236.329 66.6024 235.556 66.5836 234.806C66.5362 234.059 66.1342 233.378 65.3775 232.761C64.6208 232.145 63.8799 231.895 63.1548 232.013C62.4011 232.133 61.6787 232.489 60.9875 233.08C60.2835 233.686 59.4948 234.526 58.6216 235.598Z" fill="white"/>
<path d="M51.4123 218.711L54.618 215.665L56.446 217.588C57.7487 218.959 58.4326 220.342 58.4978 221.739C58.5482 223.15 57.8144 224.577 56.2963 226.02L51.3882 230.684L52.817 232.187L49.6776 235.171L48.2489 233.668L45.2421 236.525L41.6492 232.745L44.6559 229.887L42.3026 227.411L45.442 224.427L47.7953 226.904L52.7475 222.197C53.116 221.847 53.2973 221.506 53.2913 221.175C53.2853 220.844 53.0862 220.473 52.694 220.06L51.4123 218.711Z" fill="white"/>
<path d="M33.5733 216.677C32.4193 215.103 32.0184 213.455 32.3708 211.735C32.7067 210.026 33.7849 208.505 35.6052 207.17L43.6245 201.292L46.6898 205.474L39.2363 210.937C38.318 211.611 37.7789 212.371 37.6191 213.22C37.4594 214.068 37.674 214.894 38.263 215.697C38.852 216.501 39.5751 216.954 40.4321 217.057C41.289 217.16 42.1767 216.875 43.0951 216.202L50.5486 210.738L53.632 214.945L35.4287 228.288L32.3453 224.081L38.6673 219.447C37.7479 219.466 36.8374 219.238 35.9357 218.765C35.0339 218.291 34.2465 217.595 33.5733 216.677Z" fill="white"/>
<path d="M31.9556 198.52C30.3528 199.219 28.8156 199.535 27.344 199.467C25.8643 199.381 24.5706 198.958 23.463 198.199C22.3555 197.439 21.5212 196.417 20.9602 195.131C20.4805 194.031 20.2855 192.974 20.3751 191.959C20.4565 190.925 20.7631 190.026 21.2948 189.262L19.0863 190.225L17.0009 185.444L32.6003 178.64L34.6857 183.42L32.4772 184.383C33.4073 184.532 34.2789 184.929 35.092 185.572C35.897 186.197 36.5394 187.059 37.0191 188.159C37.5719 189.426 37.7498 190.724 37.5528 192.052C37.3371 193.389 36.7577 194.629 35.8146 195.772C34.8447 196.905 33.5584 197.821 31.9556 198.52ZM26.886 186.822C25.6932 187.343 24.8984 188.089 24.5015 189.061C24.0964 190.014 24.1012 190.966 24.5159 191.916C24.9305 192.867 25.629 193.527 26.6112 193.897C27.5667 194.257 28.6408 194.176 29.8336 193.656C31.0264 193.136 31.8346 192.395 32.2583 191.434C32.6552 190.462 32.6463 189.501 32.2317 188.55C31.8171 187.6 31.1227 186.949 30.1485 186.597C29.1663 186.227 28.0788 186.302 26.886 186.822Z" fill="white"/>
<path d="M12.9536 172.048C12.4544 170.119 12.6869 168.42 13.6513 166.952C14.5908 165.47 16.1531 164.446 18.3381 163.881L27.964 161.389L29.2631 166.409L20.3163 168.725C19.214 169.01 18.4316 169.517 17.9691 170.246C17.5066 170.974 17.4002 171.821 17.6498 172.786C17.8995 173.75 18.4033 174.439 19.1612 174.852C19.9192 175.265 20.8494 175.329 21.9517 175.043L30.8984 172.728L32.2052 177.777L15.729 182.041L14.4223 176.992L16.6073 176.427C15.7465 176.103 14.9973 175.562 14.3598 174.803C13.7026 174.049 13.2338 173.13 12.9536 172.048Z" fill="white"/>
<path d="M9.59804 151.854C9.40624 149.871 9.90124 148.23 11.083 146.931C12.2426 145.613 13.9457 144.846 16.1922 144.629L26.089 143.672L26.5881 148.833L17.3895 149.722C16.2561 149.832 15.4041 150.21 14.8334 150.858C14.2628 151.505 14.0254 152.325 14.1213 153.317C14.2172 154.309 14.6072 155.068 15.2914 155.594C15.9755 156.12 16.8843 156.328 18.0177 156.219L27.2163 155.329L27.7183 160.521L10.7783 162.159L10.2763 156.967L12.5228 156.75C11.7231 156.296 11.0677 155.645 10.5565 154.795C10.0252 153.948 9.70567 152.968 9.59804 151.854Z" fill="white"/>
<path d="M7.53703 138.226C7.51937 139.14 7.24057 139.888 6.70062 140.467C6.14073 141.026 5.46436 141.297 4.67151 141.282C3.85833 141.266 3.19295 140.969 2.67537 140.389C2.13785 139.789 1.87792 139.032 1.89558 138.117C1.91284 137.222 2.20142 136.496 2.7613 135.937C3.30125 135.358 3.97782 135.076 4.791 135.092C5.58385 135.107 6.24904 135.415 6.78655 136.015C7.30414 136.594 7.55429 137.331 7.53703 138.226ZM9.35573 135.668L26.3716 135.996L26.2709 141.211L9.25508 140.882L9.35573 135.668Z" fill="white"/>
<path d="M22.3349 125.574L10.762 120.374L11.4659 114.868L27.5817 123.016L26.7655 129.4L9.1181 133.232L9.82593 127.695L22.3349 125.574Z" fill="white"/>
<path d="M24.1642 99.616C24.6343 99.7472 25.1157 99.9133 25.6085 100.114L22.4349 111.483C23.4751 111.689 24.3487 111.585 25.0556 111.17C25.7484 110.73 26.2124 110.089 26.4474 109.247C26.7973 107.993 26.5118 106.974 25.5909 106.189L27.0834 100.843C28.0841 101.417 28.9141 102.187 29.5735 103.153C30.2384 104.098 30.6654 105.178 30.8543 106.392C31.0432 107.606 30.9518 108.878 30.58 110.21C30.1317 111.816 29.3899 113.15 28.3546 114.212C27.3192 115.274 26.0666 115.98 24.5968 116.33C23.127 116.679 21.5402 116.617 19.8363 116.141C18.1324 115.665 16.7397 114.907 15.658 113.866C14.5819 112.806 13.876 111.553 13.5404 110.108C13.2048 108.664 13.2639 107.129 13.7177 105.503C14.1605 103.917 14.8871 102.6 15.8974 101.552C16.9077 100.504 18.1254 99.8092 19.5506 99.4681C20.9813 99.1075 22.5191 99.1568 24.1642 99.616ZM21.4072 104.388C20.5455 104.147 19.778 104.25 19.1048 104.695C18.4316 105.141 17.972 105.804 17.7259 106.685C17.4909 107.527 17.5361 108.311 17.8617 109.035C18.1928 109.739 18.7896 110.286 19.6522 110.675L21.4072 104.388Z" fill="white"/>
<path d="M21.8259 91.3383C21.1952 90.4168 20.8107 89.4322 20.6724 88.3846C20.5153 87.3291 20.6507 86.2848 21.0787 85.2516L26.179 87.3641L25.6305 88.6885C25.1325 89.8907 25.022 90.9014 25.299 91.7204C25.5573 92.5316 26.3345 93.2057 27.6307 93.7425L34.929 96.7654L32.9332 101.584L17.2095 95.0714L19.2053 90.2529L21.8259 91.3383Z" fill="white"/>
<path d="M40.6747 85.3985C39.9529 86.6956 39.0882 87.7269 38.0804 88.4925C37.0727 89.258 36.0237 89.7214 34.9334 89.8826C33.8253 90.0339 32.7718 89.8782 31.7728 89.4154L34.2791 84.9112C34.8241 85.1447 35.3751 85.1371 35.9322 84.8887C36.4893 84.6402 36.9409 84.2051 37.2869 83.5832C37.6033 83.0146 37.7389 82.52 37.6938 82.0993C37.6408 81.6509 37.4366 81.3279 37.0812 81.1302C36.6548 80.8929 36.2203 80.9419 35.7777 81.2774C35.3173 81.6029 34.6859 82.194 33.8834 83.0506C33.0415 83.9782 32.2895 84.7232 31.6275 85.2856C30.9477 85.8382 30.1713 86.2089 29.2983 86.3979C28.4075 86.577 27.4557 86.3848 26.4429 85.8212C25.59 85.3467 24.9457 84.6856 24.5098 83.8381C24.066 82.9628 23.8919 81.9585 23.9875 80.8249C24.093 79.6736 24.4967 78.4672 25.1987 77.2057C26.2368 75.34 27.5144 74.1313 29.0316 73.5793C30.5586 73.0096 32.1306 73.0699 33.7476 73.7603L31.4044 77.9713C30.8496 77.7556 30.3124 77.7592 29.7929 77.982C29.2832 78.1871 28.8553 78.6005 28.5093 79.2224C28.2127 79.7554 28.0919 80.2234 28.1469 80.6263C28.1842 81.0194 28.3805 81.3148 28.7358 81.5125C29.1622 81.7498 29.6056 81.7056 30.066 81.3801C30.5363 81.0368 31.145 80.4447 31.8921 79.6039C32.7894 78.6605 33.573 77.9214 34.2428 77.3867C34.8949 76.842 35.6753 76.4851 36.5839 76.3159C37.4846 76.119 38.4552 76.2984 39.4956 76.8541C40.3662 77.3385 41.0096 78.0223 41.4257 78.9054C41.8339 79.7608 41.9764 80.7593 41.8532 81.9007C41.7398 83.0244 41.347 84.1903 40.6747 85.3985Z" fill="white"/>
<path d="M36.5278 74.3551C35.1365 73.2958 34.1122 72.1069 33.4549 70.7885C32.8099 69.454 32.5492 68.1182 32.6728 66.7811C32.7964 65.4441 33.2832 64.2174 34.1331 63.1012C34.8599 62.1467 35.6884 61.4614 36.6187 61.0453C37.5613 60.6129 38.4958 60.4428 39.4224 60.535L37.5054 59.0753L40.665 54.9258L54.2054 65.2362L51.0458 69.3857L49.1288 67.9259C49.4517 68.8108 49.5302 69.765 49.3641 70.7886C49.2104 71.7961 48.7701 72.777 48.0433 73.7315C47.2057 74.8315 46.1588 75.619 44.9028 76.0937C43.6306 76.5562 42.2655 76.654 40.8075 76.3872C39.3456 76.0919 37.919 75.4145 36.5278 74.3551ZM44.2756 64.2305C43.2402 63.4421 42.2016 63.1112 41.1595 63.2378C40.1298 63.3482 39.3009 63.816 38.6726 64.641C38.0444 65.4661 37.8078 66.3977 37.9629 67.4358C38.1142 68.4455 38.7075 69.3445 39.7428 70.1329C40.7782 70.9212 41.8188 71.2664 42.8647 71.1683C43.9067 71.0417 44.7418 70.5658 45.37 69.7408C45.9983 68.9157 46.2287 67.9922 46.0613 66.9703C45.9062 65.9321 45.3109 65.0188 44.2756 64.2305Z" fill="white"/>
<path d="M48.9501 50.4341C48.7121 49.343 48.726 48.2861 48.9917 47.2634C49.243 46.2263 49.7611 45.3095 50.5462 44.513L54.478 48.3881L53.4718 49.4091C52.5583 50.3359 52.0759 51.2309 52.0247 52.094C51.959 52.9428 52.4257 53.8596 53.425 54.8444L59.0512 60.3895L55.3902 64.1041L43.2688 52.1576L46.9298 48.443L48.9501 50.4341Z" fill="white"/>
<path d="M65.768 32.2106L73.0585 58.4954L68.6689 61.9921L66.3255 52.7845L50.6672 44.2399L55.2237 40.6102L64.9334 46.4845L61.3547 35.7263L65.768 32.2106Z" fill="white"/>
<path d="M73.4893 27.0114L71.2099 22.7309L78.667 18.7599L89.1321 38.4122L84.3402 40.964L76.1545 25.5921L73.4893 27.0114Z" fill="white"/>
<path d="M86.8012 26.4846C85.548 23.2195 85.1872 20.4068 85.7188 18.0466C86.2694 15.6791 87.9494 13.9563 90.7589 12.8779C93.5684 11.7996 95.9603 11.9597 97.9345 13.3582C99.9276 14.7494 101.551 17.0775 102.804 20.3426C104.072 23.6457 104.43 26.481 103.88 28.8485C103.348 31.2087 101.678 32.9279 98.8681 34.0062C96.0586 35.0845 93.6572 34.9281 91.6641 33.5369C89.6899 32.1384 88.0689 29.7877 86.8012 26.4846ZM98.0202 22.1787C97.2843 20.2614 96.5109 18.8703 95.6998 18.0055C94.8815 17.1217 93.8174 16.9312 92.5075 17.4339C91.1977 17.9366 90.5343 18.7902 90.5174 19.9945C90.4932 21.1799 90.8491 22.7313 91.5849 24.6486C92.0804 25.9394 92.5679 26.9828 93.0477 27.7788C93.5201 28.5557 94.0861 29.1226 94.7457 29.4792C95.417 29.8096 96.2083 29.8 97.1195 29.4503C98.0307 29.1005 98.6157 28.582 98.8746 27.8946C99.1452 27.1809 99.1961 26.3773 99.0274 25.4837C98.8514 24.5712 98.5157 23.4695 98.0202 22.1787Z" fill="white"/>
<path d="M115.848 24.3743L116.907 28.6681L114.331 29.3036C112.495 29.7565 110.954 29.6653 109.708 29.0302C108.458 28.3753 107.582 27.0312 107.08 24.9978L105.458 18.4239L103.445 18.9206L102.408 14.7156L104.421 14.2189L103.428 10.1916L108.491 8.94253L109.485 12.9698L112.802 12.1517L113.839 16.3566L110.522 17.1748L112.158 23.8079C112.28 24.3015 112.486 24.6276 112.777 24.7863C113.067 24.945 113.489 24.9562 114.042 24.8199L115.848 24.3743Z" fill="white"/>
<path d="M126.744 9.83095C128.683 9.6132 130.312 10.0851 131.629 11.2468C132.944 12.3882 133.727 14.0804 133.979 16.3233L135.088 26.2043L129.936 26.7827L128.905 17.5989C128.778 16.4673 128.386 15.6212 127.73 15.0606C127.073 14.5 126.25 14.2752 125.26 14.3864C124.27 14.4975 123.517 14.8992 123.001 15.5914C122.486 16.2835 122.291 17.1954 122.418 18.327L123.449 27.5108L118.266 28.0926L115.749 5.66346L120.932 5.08166L121.806 12.8712C122.247 12.0646 122.898 11.388 123.757 10.8414C124.617 10.2948 125.612 9.95797 126.744 9.83095Z" fill="white"/>
<path d="M144.064 17.4463C144.259 15.7085 144.754 14.2192 145.548 12.9784C146.362 11.7398 147.375 10.8305 148.585 10.2503C149.796 9.67005 151.099 9.45821 152.493 9.61472C153.685 9.74854 154.699 10.1078 155.534 10.6926C156.388 11.2796 157.014 11.9944 157.411 12.8369L157.679 10.4424L162.862 11.0242L160.964 27.937L155.781 27.3552L156.05 24.9607C155.456 25.6921 154.677 26.2492 153.714 26.6321C152.77 27.0172 151.702 27.1429 150.51 27.009C149.136 26.8548 147.923 26.3606 146.871 25.5263C145.821 24.6719 145.036 23.5505 144.517 22.1622C144.02 20.756 143.869 19.184 144.064 17.4463ZM156.73 18.8988C156.875 17.6056 156.626 16.5443 155.983 15.715C155.359 14.888 154.532 14.4167 153.502 14.301C152.471 14.1853 151.55 14.4604 150.739 15.1264C149.95 15.7745 149.483 16.7451 149.338 18.0383C149.193 19.3315 149.431 20.4017 150.052 21.249C150.695 22.0783 151.532 22.5507 152.563 22.6664C153.593 22.7821 154.504 22.5058 155.295 21.8376C156.107 21.1716 156.585 20.192 156.73 18.8988Z" fill="white"/>
<path d="M176.257 14.1234C178.178 14.6519 179.535 15.6999 180.327 17.2674C181.144 18.8207 181.253 20.6855 180.655 22.8617L178.017 32.4486L173.018 31.0734L175.469 22.1629C175.771 21.065 175.721 20.134 175.32 19.3698C174.919 18.6057 174.238 18.0915 173.277 17.8272C172.316 17.563 171.468 17.6565 170.732 18.1079C169.997 18.5593 169.478 19.3339 169.176 20.4318L166.725 29.3423L161.696 27.9591L166.21 11.5496L171.239 12.9328L170.64 15.109C171.349 14.5238 172.192 14.144 173.168 13.9696C174.149 13.7756 175.179 13.8268 176.257 14.1234Z" fill="white"/>
<path d="M195.452 21.254C197.266 22.0779 198.442 23.3261 198.977 24.9986C199.54 26.661 199.355 28.5197 198.422 30.5747L194.311 39.6281L189.59 37.4843L193.41 29.0697C193.881 28.0329 193.979 27.1057 193.702 26.2879C193.426 25.4702 192.834 24.8554 191.927 24.4434C191.02 24.0315 190.167 23.9906 189.37 24.3207C188.572 24.6508 187.938 25.3343 187.468 26.3711L183.647 34.7857L178.898 32.6293L185.934 17.1331L190.683 19.2895L189.75 21.3445C190.542 20.8781 191.434 20.6354 192.425 20.6165C193.425 20.5791 194.434 20.7916 195.452 21.254Z" fill="white"/>
<path d="M208.009 26.0849C207.225 25.6137 206.716 24.9997 206.483 24.2429C206.277 23.4791 206.379 22.7573 206.787 22.0775C207.206 21.3803 207.796 20.9517 208.556 20.7917C209.344 20.6247 210.13 20.7768 210.915 21.248C211.682 21.7087 212.168 22.3209 212.373 23.0847C212.606 23.8416 212.514 24.5686 212.095 25.2658C211.686 25.9456 211.088 26.369 210.3 26.5359C209.54 26.6959 208.776 26.5456 208.009 26.0849ZM209.321 28.9363L200.557 43.5254L196.086 40.8397L204.85 26.2506L209.321 28.9363Z" fill="white"/>
<path d="M211.339 45.0058L221.602 37.5462L226.031 40.893L210.952 50.8299L205.817 46.9499L211.26 29.731L215.713 33.0962L211.339 45.0058Z" fill="white"/>
<path d="M232.866 59.3008C232.519 59.6446 232.137 59.9811 231.719 60.3103L223.403 51.9337C222.71 52.7363 222.369 53.5475 222.38 54.367C222.421 55.1867 222.749 55.9068 223.365 56.5273C224.282 57.4508 225.309 57.7062 226.446 57.2933L230.357 61.2327C229.363 61.8186 228.283 62.1598 227.118 62.2562C225.967 62.367 224.818 62.2047 223.669 61.7692C222.521 61.3337 221.459 60.6253 220.485 59.644C219.31 58.4608 218.517 57.1567 218.105 55.7318C217.693 54.3069 217.699 52.8691 218.121 51.4185C218.543 49.9678 219.382 48.6193 220.637 47.373C221.893 46.1267 223.24 45.2905 224.68 44.8644C226.133 44.4527 227.571 44.4579 228.993 44.8801C230.415 45.3022 231.72 46.1121 232.909 47.3098C234.07 48.4786 234.856 49.7611 235.268 51.1573C235.679 52.5534 235.682 53.9553 235.274 55.3628C234.881 56.7848 234.078 58.0975 232.866 59.3008ZM230.079 54.546C230.714 53.9157 231.004 53.1978 230.95 52.3925C230.895 51.5871 230.546 50.8597 229.901 50.2104C229.285 49.5899 228.582 49.2423 227.791 49.1675C227.015 49.1072 226.245 49.356 225.481 49.914L230.079 54.546Z" fill="white"/>
<path d="M241.398 61.5205C242.511 61.427 243.557 61.5788 244.536 61.9758C245.532 62.3603 246.373 62.9937 247.06 63.876L242.705 67.2683L241.824 66.1373C241.024 65.1107 240.2 64.5156 239.351 64.3521C238.518 64.1761 237.548 64.5192 236.441 65.3813L230.209 70.2354L227.004 66.1208L240.431 55.6629L243.636 59.7775L241.398 61.5205Z" fill="white"/>
<path d="M237.594 81.349C236.825 80.0794 236.358 78.8173 236.192 77.5626C236.026 76.3079 236.144 75.1671 236.544 74.1402C236.962 73.1028 237.619 72.2648 238.516 71.6264L241.186 76.0352C240.714 76.3928 240.447 76.8752 240.387 77.4822C240.327 78.0892 240.481 78.6971 240.85 79.3058C241.187 79.8623 241.549 80.2252 241.937 80.3944C242.353 80.5705 242.734 80.5533 243.082 80.3426C243.5 80.0897 243.672 79.688 243.6 79.1373C243.546 78.5761 243.345 77.7348 242.999 76.6134C242.61 75.4224 242.335 74.4001 242.175 73.5464C242.032 72.6822 242.095 71.8241 242.363 70.9721C242.649 70.1095 243.287 69.378 244.279 68.7776C245.113 68.2719 246.007 68.0397 246.959 68.0811C247.939 68.1293 248.898 68.4757 249.835 69.1204C250.783 69.7824 251.631 70.7309 252.379 71.9657C253.485 73.7918 253.902 75.5005 253.63 77.0918C253.368 78.7005 252.536 80.0361 251.136 81.0986L248.639 76.9768C249.101 76.6017 249.364 76.1333 249.428 75.5716C249.503 75.0273 249.355 74.4508 248.987 73.8421C248.671 73.3203 248.324 72.9835 247.947 72.8317C247.587 72.6693 247.233 72.6935 246.885 72.9041C246.468 73.157 246.286 73.564 246.341 74.1252C246.406 74.7038 246.619 75.5259 246.979 76.5914C247.354 77.8383 247.608 78.8851 247.74 79.7319C247.89 80.5682 247.814 81.4229 247.51 82.2959C247.235 83.1759 246.598 83.93 245.6 84.5584C244.748 85.0746 243.835 85.2947 242.862 85.2185C241.917 85.1493 240.979 84.7784 240.049 84.1058C239.129 83.4505 238.311 82.5316 237.594 81.349Z" fill="white"/>
<path d="M249.004 82.7709C250.612 82.0837 252.151 81.7795 253.623 81.8585C255.102 81.9561 256.392 82.3886 257.494 83.1559C258.596 83.9233 259.422 84.9521 259.974 86.2422C260.445 87.3453 260.632 88.4041 260.535 89.4186C260.446 90.4518 260.133 91.3485 259.595 92.1089L261.811 91.162L263.861 95.9579L248.211 102.646L246.161 97.8503L248.377 96.9034C247.448 96.7476 246.579 96.3449 245.771 95.6953C244.971 95.0644 244.335 94.1973 243.863 93.0942C243.32 91.8228 243.152 90.5237 243.359 89.197C243.584 87.8622 244.173 86.6267 245.125 85.4903C246.103 84.3645 247.396 83.4581 249.004 82.7709ZM253.986 94.5061C255.183 93.9947 255.983 93.2546 256.387 92.2859C256.799 91.3358 256.802 90.384 256.394 89.4304C255.987 88.4769 255.293 87.8113 254.314 87.4339C253.361 87.0672 252.286 87.1395 251.09 87.6509C249.893 88.1623 249.079 88.897 248.648 89.8551C248.244 90.8239 248.246 91.785 248.654 92.7386C249.061 93.6922 249.751 94.3483 250.722 94.7071C251.701 95.0845 252.79 95.0175 253.986 94.5061Z" fill="white"/>
<path d="M263.809 105.882C264.874 106.218 265.784 106.755 266.539 107.494C267.314 108.228 267.851 109.134 268.152 110.211L262.835 111.695L262.449 110.314C262.1 109.061 261.563 108.197 260.84 107.724C260.136 107.245 259.108 107.194 257.757 107.571L250.148 109.695L248.746 104.671L265.138 100.095L266.541 105.119L263.809 105.882Z" fill="white"/>
<path d="M271.233 129.727L244.817 122.928L243.977 117.379L253.126 119.943L268.344 110.638L269.216 116.398L259.28 121.881L270.388 124.148L271.233 129.727Z" fill="white"/>
</svg>
